<mxfile host="app.diagrams.net" modified="2021-03-05T05:44:05.666Z" agent="5.0 (Macintosh; Intel Mac OS X 10_15_7) AppleWebKit/537.36 (KHTML, like Gecko) Chrome/88.0.4324.192 Safari/537.36" etag="3oxYGzujoyMYiY_A6AEM" version="14.4.3" type="github">
  <diagram id="f5cA9JEQlLjVSHiM5FrV" name="Page-1">
    <mxGraphModel dx="1351" dy="769" grid="1" gridSize="10" guides="1" tooltips="1" connect="1" arrows="1" fold="1" page="1" pageScale="1" pageWidth="850" pageHeight="1100" math="0" shadow="0">
      <root>
        <mxCell id="0" />
        <mxCell id="1" parent="0" />
        <mxCell id="Je-rHfzs1zaMtYx9te_G-21" style="edgeStyle=orthogonalEdgeStyle;rounded=0;orthogonalLoop=1;jettySize=auto;html=1;entryX=0.5;entryY=0;entryDx=0;entryDy=0;" edge="1" parent="1" source="Je-rHfzs1zaMtYx9te_G-1" target="Je-rHfzs1zaMtYx9te_G-22">
          <mxGeometry relative="1" as="geometry" />
        </mxCell>
        <mxCell id="Je-rHfzs1zaMtYx9te_G-29" style="edgeStyle=orthogonalEdgeStyle;rounded=0;orthogonalLoop=1;jettySize=auto;html=1;" edge="1" parent="1" source="Je-rHfzs1zaMtYx9te_G-1" target="Je-rHfzs1zaMtYx9te_G-28">
          <mxGeometry relative="1" as="geometry" />
        </mxCell>
        <mxCell id="Je-rHfzs1zaMtYx9te_G-32" style="edgeStyle=orthogonalEdgeStyle;rounded=0;orthogonalLoop=1;jettySize=auto;html=1;" edge="1" parent="1" source="Je-rHfzs1zaMtYx9te_G-1" target="Je-rHfzs1zaMtYx9te_G-30">
          <mxGeometry relative="1" as="geometry" />
        </mxCell>
        <mxCell id="Je-rHfzs1zaMtYx9te_G-36" style="edgeStyle=orthogonalEdgeStyle;rounded=0;orthogonalLoop=1;jettySize=auto;html=1;entryX=0.6;entryY=0.017;entryDx=0;entryDy=0;entryPerimeter=0;" edge="1" parent="1" source="Je-rHfzs1zaMtYx9te_G-1" target="Je-rHfzs1zaMtYx9te_G-35">
          <mxGeometry relative="1" as="geometry" />
        </mxCell>
        <mxCell id="Je-rHfzs1zaMtYx9te_G-38" style="edgeStyle=orthogonalEdgeStyle;rounded=0;orthogonalLoop=1;jettySize=auto;html=1;entryX=0.5;entryY=0;entryDx=0;entryDy=0;" edge="1" parent="1" source="Je-rHfzs1zaMtYx9te_G-1" target="Je-rHfzs1zaMtYx9te_G-37">
          <mxGeometry relative="1" as="geometry" />
        </mxCell>
        <mxCell id="Je-rHfzs1zaMtYx9te_G-48" style="edgeStyle=orthogonalEdgeStyle;rounded=0;orthogonalLoop=1;jettySize=auto;html=1;" edge="1" parent="1" source="Je-rHfzs1zaMtYx9te_G-1" target="Je-rHfzs1zaMtYx9te_G-47">
          <mxGeometry relative="1" as="geometry" />
        </mxCell>
        <mxCell id="Je-rHfzs1zaMtYx9te_G-50" style="edgeStyle=orthogonalEdgeStyle;rounded=0;orthogonalLoop=1;jettySize=auto;html=1;" edge="1" parent="1" source="Je-rHfzs1zaMtYx9te_G-1" target="Je-rHfzs1zaMtYx9te_G-49">
          <mxGeometry relative="1" as="geometry">
            <Array as="points">
              <mxPoint x="390" y="400" />
              <mxPoint x="865" y="400" />
            </Array>
          </mxGeometry>
        </mxCell>
        <mxCell id="Je-rHfzs1zaMtYx9te_G-54" style="edgeStyle=orthogonalEdgeStyle;rounded=0;orthogonalLoop=1;jettySize=auto;html=1;" edge="1" parent="1" source="Je-rHfzs1zaMtYx9te_G-1" target="Je-rHfzs1zaMtYx9te_G-53">
          <mxGeometry relative="1" as="geometry">
            <Array as="points">
              <mxPoint x="390" y="400" />
              <mxPoint x="805" y="400" />
            </Array>
          </mxGeometry>
        </mxCell>
        <mxCell id="Je-rHfzs1zaMtYx9te_G-1" value="Core Application" style="rounded=0;whiteSpace=wrap;html=1;" vertex="1" parent="1">
          <mxGeometry x="40" y="310" width="700" height="60" as="geometry" />
        </mxCell>
        <mxCell id="Je-rHfzs1zaMtYx9te_G-9" style="edgeStyle=orthogonalEdgeStyle;rounded=0;orthogonalLoop=1;jettySize=auto;html=1;entryX=0.25;entryY=0;entryDx=0;entryDy=0;" edge="1" parent="1" source="Je-rHfzs1zaMtYx9te_G-2" target="Je-rHfzs1zaMtYx9te_G-3">
          <mxGeometry relative="1" as="geometry" />
        </mxCell>
        <mxCell id="Je-rHfzs1zaMtYx9te_G-10" style="edgeStyle=orthogonalEdgeStyle;rounded=0;orthogonalLoop=1;jettySize=auto;html=1;" edge="1" parent="1" source="Je-rHfzs1zaMtYx9te_G-2" target="Je-rHfzs1zaMtYx9te_G-5">
          <mxGeometry relative="1" as="geometry">
            <mxPoint x="320" y="160" as="targetPoint" />
          </mxGeometry>
        </mxCell>
        <mxCell id="Je-rHfzs1zaMtYx9te_G-11" style="edgeStyle=orthogonalEdgeStyle;rounded=0;orthogonalLoop=1;jettySize=auto;html=1;entryX=0.375;entryY=-0.025;entryDx=0;entryDy=0;entryPerimeter=0;" edge="1" parent="1" source="Je-rHfzs1zaMtYx9te_G-2" target="Je-rHfzs1zaMtYx9te_G-6">
          <mxGeometry relative="1" as="geometry" />
        </mxCell>
        <mxCell id="Je-rHfzs1zaMtYx9te_G-12" style="edgeStyle=orthogonalEdgeStyle;rounded=0;orthogonalLoop=1;jettySize=auto;html=1;" edge="1" parent="1" source="Je-rHfzs1zaMtYx9te_G-2" target="Je-rHfzs1zaMtYx9te_G-7">
          <mxGeometry relative="1" as="geometry" />
        </mxCell>
        <mxCell id="Je-rHfzs1zaMtYx9te_G-13" style="edgeStyle=orthogonalEdgeStyle;rounded=0;orthogonalLoop=1;jettySize=auto;html=1;" edge="1" parent="1" source="Je-rHfzs1zaMtYx9te_G-2" target="Je-rHfzs1zaMtYx9te_G-8">
          <mxGeometry relative="1" as="geometry" />
        </mxCell>
        <mxCell id="Je-rHfzs1zaMtYx9te_G-16" style="edgeStyle=orthogonalEdgeStyle;rounded=0;orthogonalLoop=1;jettySize=auto;html=1;" edge="1" parent="1" source="Je-rHfzs1zaMtYx9te_G-2" target="Je-rHfzs1zaMtYx9te_G-15">
          <mxGeometry relative="1" as="geometry" />
        </mxCell>
        <mxCell id="Je-rHfzs1zaMtYx9te_G-2" value="App Router" style="rounded=0;whiteSpace=wrap;html=1;" vertex="1" parent="1">
          <mxGeometry x="330" y="70" width="120" height="60" as="geometry" />
        </mxCell>
        <mxCell id="Je-rHfzs1zaMtYx9te_G-18" style="edgeStyle=orthogonalEdgeStyle;rounded=0;orthogonalLoop=1;jettySize=auto;html=1;" edge="1" parent="1" source="Je-rHfzs1zaMtYx9te_G-3" target="Je-rHfzs1zaMtYx9te_G-15">
          <mxGeometry relative="1" as="geometry" />
        </mxCell>
        <mxCell id="Je-rHfzs1zaMtYx9te_G-3" value="Login" style="whiteSpace=wrap;html=1;aspect=fixed;" vertex="1" parent="1">
          <mxGeometry x="150" y="170" width="80" height="80" as="geometry" />
        </mxCell>
        <mxCell id="Je-rHfzs1zaMtYx9te_G-5" value="Advertiser" style="whiteSpace=wrap;html=1;aspect=fixed;" vertex="1" parent="1">
          <mxGeometry x="280" y="170" width="80" height="80" as="geometry" />
        </mxCell>
        <mxCell id="Je-rHfzs1zaMtYx9te_G-6" value="Employee" style="whiteSpace=wrap;html=1;aspect=fixed;" vertex="1" parent="1">
          <mxGeometry x="410" y="170" width="80" height="80" as="geometry" />
        </mxCell>
        <mxCell id="Je-rHfzs1zaMtYx9te_G-7" value="Publisher" style="whiteSpace=wrap;html=1;aspect=fixed;" vertex="1" parent="1">
          <mxGeometry x="530" y="170" width="80" height="80" as="geometry" />
        </mxCell>
        <mxCell id="Je-rHfzs1zaMtYx9te_G-8" value="Search" style="whiteSpace=wrap;html=1;aspect=fixed;" vertex="1" parent="1">
          <mxGeometry x="660" y="170" width="80" height="80" as="geometry" />
        </mxCell>
        <mxCell id="Je-rHfzs1zaMtYx9te_G-20" style="edgeStyle=orthogonalEdgeStyle;rounded=0;orthogonalLoop=1;jettySize=auto;html=1;" edge="1" parent="1" source="Je-rHfzs1zaMtYx9te_G-14" target="Je-rHfzs1zaMtYx9te_G-19">
          <mxGeometry relative="1" as="geometry" />
        </mxCell>
        <mxCell id="Je-rHfzs1zaMtYx9te_G-24" value="set headers, caching policy,&amp;nbsp;&lt;br&gt;abstractions, interceptors" style="edgeLabel;html=1;align=center;verticalAlign=middle;resizable=0;points=[];" vertex="1" connectable="0" parent="Je-rHfzs1zaMtYx9te_G-20">
          <mxGeometry x="-0.18" relative="1" as="geometry">
            <mxPoint as="offset" />
          </mxGeometry>
        </mxCell>
        <mxCell id="Je-rHfzs1zaMtYx9te_G-27" style="edgeStyle=orthogonalEdgeStyle;rounded=0;orthogonalLoop=1;jettySize=auto;html=1;" edge="1" parent="1" source="Je-rHfzs1zaMtYx9te_G-14" target="Je-rHfzs1zaMtYx9te_G-25">
          <mxGeometry relative="1" as="geometry" />
        </mxCell>
        <mxCell id="Je-rHfzs1zaMtYx9te_G-14" value="Http Client" style="rounded=0;whiteSpace=wrap;html=1;" vertex="1" parent="1">
          <mxGeometry x="40" y="520" width="120" height="40" as="geometry" />
        </mxCell>
        <mxCell id="Je-rHfzs1zaMtYx9te_G-17" style="edgeStyle=orthogonalEdgeStyle;rounded=0;orthogonalLoop=1;jettySize=auto;html=1;" edge="1" parent="1" source="Je-rHfzs1zaMtYx9te_G-15" target="Je-rHfzs1zaMtYx9te_G-3">
          <mxGeometry relative="1" as="geometry" />
        </mxCell>
        <mxCell id="Je-rHfzs1zaMtYx9te_G-15" value="Reset Password" style="whiteSpace=wrap;html=1;aspect=fixed;" vertex="1" parent="1">
          <mxGeometry x="40" y="170" width="80" height="80" as="geometry" />
        </mxCell>
        <mxCell id="Je-rHfzs1zaMtYx9te_G-19" value="Axios" style="rounded=0;whiteSpace=wrap;html=1;" vertex="1" parent="1">
          <mxGeometry x="40" y="660" width="120" height="60" as="geometry" />
        </mxCell>
        <mxCell id="Je-rHfzs1zaMtYx9te_G-23" style="edgeStyle=orthogonalEdgeStyle;rounded=0;orthogonalLoop=1;jettySize=auto;html=1;" edge="1" parent="1" source="Je-rHfzs1zaMtYx9te_G-22" target="Je-rHfzs1zaMtYx9te_G-14">
          <mxGeometry relative="1" as="geometry" />
        </mxCell>
        <mxCell id="Je-rHfzs1zaMtYx9te_G-22" value="API Services" style="rounded=0;whiteSpace=wrap;html=1;" vertex="1" parent="1">
          <mxGeometry x="50" y="400" width="120" height="60" as="geometry" />
        </mxCell>
        <mxCell id="Je-rHfzs1zaMtYx9te_G-25" value="Axios cache adapter" style="rounded=0;whiteSpace=wrap;html=1;" vertex="1" parent="1">
          <mxGeometry x="180" y="660" width="120" height="60" as="geometry" />
        </mxCell>
        <mxCell id="Je-rHfzs1zaMtYx9te_G-28" value="Utils" style="rounded=0;whiteSpace=wrap;html=1;" vertex="1" parent="1">
          <mxGeometry x="220" y="430" width="70" height="60" as="geometry" />
        </mxCell>
        <mxCell id="Je-rHfzs1zaMtYx9te_G-34" style="edgeStyle=orthogonalEdgeStyle;rounded=0;orthogonalLoop=1;jettySize=auto;html=1;entryX=0.5;entryY=0;entryDx=0;entryDy=0;" edge="1" parent="1" source="Je-rHfzs1zaMtYx9te_G-30" target="Je-rHfzs1zaMtYx9te_G-33">
          <mxGeometry relative="1" as="geometry" />
        </mxCell>
        <mxCell id="Je-rHfzs1zaMtYx9te_G-30" value="Custom hooks" style="rounded=0;whiteSpace=wrap;html=1;" vertex="1" parent="1">
          <mxGeometry x="330" y="430" width="70" height="60" as="geometry" />
        </mxCell>
        <mxCell id="Je-rHfzs1zaMtYx9te_G-33" value="useEntityRounting,&lt;br&gt;useFetchState etc" style="rounded=0;whiteSpace=wrap;html=1;" vertex="1" parent="1">
          <mxGeometry x="330" y="520" width="120" height="60" as="geometry" />
        </mxCell>
        <mxCell id="Je-rHfzs1zaMtYx9te_G-35" value="theme" style="rounded=0;whiteSpace=wrap;html=1;" vertex="1" parent="1">
          <mxGeometry x="440" y="430" width="70" height="60" as="geometry" />
        </mxCell>
        <mxCell id="Je-rHfzs1zaMtYx9te_G-41" style="edgeStyle=orthogonalEdgeStyle;rounded=0;orthogonalLoop=1;jettySize=auto;html=1;entryX=0.5;entryY=0;entryDx=0;entryDy=0;" edge="1" parent="1" source="Je-rHfzs1zaMtYx9te_G-37" target="Je-rHfzs1zaMtYx9te_G-66">
          <mxGeometry relative="1" as="geometry">
            <Array as="points">
              <mxPoint x="720" y="460" />
              <mxPoint x="720" y="620" />
            </Array>
          </mxGeometry>
        </mxCell>
        <mxCell id="Je-rHfzs1zaMtYx9te_G-44" style="edgeStyle=orthogonalEdgeStyle;rounded=0;orthogonalLoop=1;jettySize=auto;html=1;entryX=0.5;entryY=0;entryDx=0;entryDy=0;" edge="1" parent="1" source="Je-rHfzs1zaMtYx9te_G-37" target="Je-rHfzs1zaMtYx9te_G-43">
          <mxGeometry relative="1" as="geometry" />
        </mxCell>
        <mxCell id="Je-rHfzs1zaMtYx9te_G-46" style="edgeStyle=orthogonalEdgeStyle;rounded=0;orthogonalLoop=1;jettySize=auto;html=1;entryX=0.25;entryY=0;entryDx=0;entryDy=0;" edge="1" parent="1" source="Je-rHfzs1zaMtYx9te_G-37" target="Je-rHfzs1zaMtYx9te_G-45">
          <mxGeometry relative="1" as="geometry" />
        </mxCell>
        <mxCell id="Je-rHfzs1zaMtYx9te_G-52" style="edgeStyle=orthogonalEdgeStyle;rounded=0;orthogonalLoop=1;jettySize=auto;html=1;" edge="1" parent="1" source="Je-rHfzs1zaMtYx9te_G-37" target="Je-rHfzs1zaMtYx9te_G-51">
          <mxGeometry relative="1" as="geometry" />
        </mxCell>
        <mxCell id="Je-rHfzs1zaMtYx9te_G-37" value="Session" style="rounded=0;whiteSpace=wrap;html=1;" vertex="1" parent="1">
          <mxGeometry x="550" y="430" width="70" height="60" as="geometry" />
        </mxCell>
        <mxCell id="Je-rHfzs1zaMtYx9te_G-67" style="edgeStyle=orthogonalEdgeStyle;rounded=0;orthogonalLoop=1;jettySize=auto;html=1;" edge="1" parent="1" source="Je-rHfzs1zaMtYx9te_G-39" target="Je-rHfzs1zaMtYx9te_G-66">
          <mxGeometry relative="1" as="geometry" />
        </mxCell>
        <mxCell id="Je-rHfzs1zaMtYx9te_G-39" value="Local Storage" style="shape=cylinder3;whiteSpace=wrap;html=1;boundedLbl=1;backgroundOutline=1;size=15;" vertex="1" parent="1">
          <mxGeometry x="690" y="720" width="60" height="80" as="geometry" />
        </mxCell>
        <mxCell id="Je-rHfzs1zaMtYx9te_G-43" value="user store" style="rounded=0;whiteSpace=wrap;html=1;" vertex="1" parent="1">
          <mxGeometry x="490" y="520" width="70" height="60" as="geometry" />
        </mxCell>
        <mxCell id="Je-rHfzs1zaMtYx9te_G-45" value="permissions" style="rounded=0;whiteSpace=wrap;html=1;" vertex="1" parent="1">
          <mxGeometry x="610" y="520" width="70" height="60" as="geometry" />
        </mxCell>
        <mxCell id="Je-rHfzs1zaMtYx9te_G-47" value="User Preferences" style="rounded=0;whiteSpace=wrap;html=1;" vertex="1" parent="1">
          <mxGeometry x="730" y="430" width="70" height="60" as="geometry" />
        </mxCell>
        <mxCell id="Je-rHfzs1zaMtYx9te_G-49" value="notifications" style="rounded=0;whiteSpace=wrap;html=1;" vertex="1" parent="1">
          <mxGeometry x="830" y="430" width="70" height="60" as="geometry" />
        </mxCell>
        <mxCell id="Je-rHfzs1zaMtYx9te_G-51" value="authentication" style="rounded=0;whiteSpace=wrap;html=1;" vertex="1" parent="1">
          <mxGeometry x="550" y="600" width="70" height="60" as="geometry" />
        </mxCell>
        <mxCell id="Je-rHfzs1zaMtYx9te_G-53" value="Global Context" style="rounded=0;whiteSpace=wrap;html=1;" vertex="1" parent="1">
          <mxGeometry x="770" y="520" width="70" height="60" as="geometry" />
        </mxCell>
        <mxCell id="Je-rHfzs1zaMtYx9te_G-59" style="edgeStyle=orthogonalEdgeStyle;rounded=0;orthogonalLoop=1;jettySize=auto;html=1;entryX=0.4;entryY=-0.017;entryDx=0;entryDy=0;entryPerimeter=0;" edge="1" parent="1" source="Je-rHfzs1zaMtYx9te_G-55" target="Je-rHfzs1zaMtYx9te_G-56">
          <mxGeometry relative="1" as="geometry">
            <Array as="points">
              <mxPoint x="1210" y="180" />
              <mxPoint x="978" y="180" />
            </Array>
          </mxGeometry>
        </mxCell>
        <mxCell id="Je-rHfzs1zaMtYx9te_G-60" style="edgeStyle=orthogonalEdgeStyle;rounded=0;orthogonalLoop=1;jettySize=auto;html=1;" edge="1" parent="1" source="Je-rHfzs1zaMtYx9te_G-55" target="Je-rHfzs1zaMtYx9te_G-57">
          <mxGeometry relative="1" as="geometry" />
        </mxCell>
        <mxCell id="Je-rHfzs1zaMtYx9te_G-61" style="edgeStyle=orthogonalEdgeStyle;rounded=0;orthogonalLoop=1;jettySize=auto;html=1;entryX=0.558;entryY=-0.017;entryDx=0;entryDy=0;entryPerimeter=0;" edge="1" parent="1" source="Je-rHfzs1zaMtYx9te_G-55" target="Je-rHfzs1zaMtYx9te_G-58">
          <mxGeometry relative="1" as="geometry" />
        </mxCell>
        <mxCell id="Je-rHfzs1zaMtYx9te_G-63" style="edgeStyle=orthogonalEdgeStyle;rounded=0;orthogonalLoop=1;jettySize=auto;html=1;entryX=0.5;entryY=0;entryDx=0;entryDy=0;" edge="1" parent="1" source="Je-rHfzs1zaMtYx9te_G-55" target="Je-rHfzs1zaMtYx9te_G-62">
          <mxGeometry relative="1" as="geometry">
            <Array as="points">
              <mxPoint x="1210" y="180" />
              <mxPoint x="1420" y="180" />
            </Array>
          </mxGeometry>
        </mxCell>
        <mxCell id="Je-rHfzs1zaMtYx9te_G-65" style="edgeStyle=orthogonalEdgeStyle;rounded=0;orthogonalLoop=1;jettySize=auto;html=1;" edge="1" parent="1" source="Je-rHfzs1zaMtYx9te_G-55" target="Je-rHfzs1zaMtYx9te_G-64">
          <mxGeometry relative="1" as="geometry">
            <Array as="points">
              <mxPoint x="1210" y="180" />
              <mxPoint x="1560" y="180" />
            </Array>
          </mxGeometry>
        </mxCell>
        <mxCell id="Je-rHfzs1zaMtYx9te_G-55" value="Common Module" style="rounded=0;whiteSpace=wrap;html=1;" vertex="1" parent="1">
          <mxGeometry x="1090" y="80" width="240" height="80" as="geometry" />
        </mxCell>
        <mxCell id="Je-rHfzs1zaMtYx9te_G-56" value="Tables / Trees" style="rounded=0;whiteSpace=wrap;html=1;" vertex="1" parent="1">
          <mxGeometry x="930" y="200" width="120" height="60" as="geometry" />
        </mxCell>
        <mxCell id="Je-rHfzs1zaMtYx9te_G-57" value="Charts" style="rounded=0;whiteSpace=wrap;html=1;" vertex="1" parent="1">
          <mxGeometry x="1070" y="200" width="120" height="60" as="geometry" />
        </mxCell>
        <mxCell id="Je-rHfzs1zaMtYx9te_G-58" value="Controls" style="rounded=0;whiteSpace=wrap;html=1;" vertex="1" parent="1">
          <mxGeometry x="1210" y="200" width="120" height="60" as="geometry" />
        </mxCell>
        <mxCell id="Je-rHfzs1zaMtYx9te_G-62" value="Layouts" style="rounded=0;whiteSpace=wrap;html=1;" vertex="1" parent="1">
          <mxGeometry x="1360" y="200" width="120" height="60" as="geometry" />
        </mxCell>
        <mxCell id="Je-rHfzs1zaMtYx9te_G-64" value="Modals/Prompts" style="rounded=0;whiteSpace=wrap;html=1;" vertex="1" parent="1">
          <mxGeometry x="1500" y="200" width="120" height="60" as="geometry" />
        </mxCell>
        <mxCell id="Je-rHfzs1zaMtYx9te_G-68" style="edgeStyle=orthogonalEdgeStyle;rounded=0;orthogonalLoop=1;jettySize=auto;html=1;entryX=0.5;entryY=0;entryDx=0;entryDy=0;entryPerimeter=0;" edge="1" parent="1" source="Je-rHfzs1zaMtYx9te_G-66" target="Je-rHfzs1zaMtYx9te_G-39">
          <mxGeometry relative="1" as="geometry" />
        </mxCell>
        <mxCell id="Je-rHfzs1zaMtYx9te_G-66" value="Session Store" style="rounded=0;whiteSpace=wrap;html=1;" vertex="1" parent="1">
          <mxGeometry x="660" y="620" width="120" height="60" as="geometry" />
        </mxCell>
        <mxCell id="Je-rHfzs1zaMtYx9te_G-69" value="" style="rounded=0;whiteSpace=wrap;html=1;" vertex="1" parent="1">
          <mxGeometry x="140" y="820" width="510" height="330" as="geometry" />
        </mxCell>
        <mxCell id="Je-rHfzs1zaMtYx9te_G-78" style="edgeStyle=orthogonalEdgeStyle;rounded=0;orthogonalLoop=1;jettySize=auto;html=1;" edge="1" parent="1" source="Je-rHfzs1zaMtYx9te_G-70" target="Je-rHfzs1zaMtYx9te_G-72">
          <mxGeometry relative="1" as="geometry" />
        </mxCell>
        <mxCell id="Je-rHfzs1zaMtYx9te_G-79" style="edgeStyle=orthogonalEdgeStyle;rounded=0;orthogonalLoop=1;jettySize=auto;html=1;" edge="1" parent="1" source="Je-rHfzs1zaMtYx9te_G-70" target="Je-rHfzs1zaMtYx9te_G-73">
          <mxGeometry relative="1" as="geometry">
            <Array as="points">
              <mxPoint x="393" y="890" />
              <mxPoint x="550" y="890" />
            </Array>
          </mxGeometry>
        </mxCell>
        <mxCell id="Je-rHfzs1zaMtYx9te_G-70" value="Sub Router" style="rounded=0;whiteSpace=wrap;html=1;" vertex="1" parent="1">
          <mxGeometry x="335" y="830" width="115" height="40" as="geometry" />
        </mxCell>
        <mxCell id="Je-rHfzs1zaMtYx9te_G-76" style="edgeStyle=orthogonalEdgeStyle;rounded=0;orthogonalLoop=1;jettySize=auto;html=1;exitX=0.5;exitY=1;exitDx=0;exitDy=0;" edge="1" parent="1" source="Je-rHfzs1zaMtYx9te_G-70" target="Je-rHfzs1zaMtYx9te_G-71">
          <mxGeometry relative="1" as="geometry">
            <Array as="points">
              <mxPoint x="393" y="890" />
              <mxPoint x="250" y="890" />
            </Array>
          </mxGeometry>
        </mxCell>
        <mxCell id="Je-rHfzs1zaMtYx9te_G-82" style="edgeStyle=orthogonalEdgeStyle;rounded=0;orthogonalLoop=1;jettySize=auto;html=1;" edge="1" parent="1" source="Je-rHfzs1zaMtYx9te_G-71" target="Je-rHfzs1zaMtYx9te_G-80">
          <mxGeometry relative="1" as="geometry" />
        </mxCell>
        <mxCell id="Je-rHfzs1zaMtYx9te_G-83" style="edgeStyle=orthogonalEdgeStyle;rounded=0;orthogonalLoop=1;jettySize=auto;html=1;" edge="1" parent="1" source="Je-rHfzs1zaMtYx9te_G-71" target="Je-rHfzs1zaMtYx9te_G-81">
          <mxGeometry relative="1" as="geometry" />
        </mxCell>
        <mxCell id="Je-rHfzs1zaMtYx9te_G-71" value="Page" style="rounded=0;whiteSpace=wrap;html=1;" vertex="1" parent="1">
          <mxGeometry x="190" y="910" width="120" height="60" as="geometry" />
        </mxCell>
        <mxCell id="Je-rHfzs1zaMtYx9te_G-72" value="Sub module" style="rounded=0;whiteSpace=wrap;html=1;" vertex="1" parent="1">
          <mxGeometry x="333" y="910" width="120" height="60" as="geometry" />
        </mxCell>
        <mxCell id="Je-rHfzs1zaMtYx9te_G-73" value="Page" style="rounded=0;whiteSpace=wrap;html=1;" vertex="1" parent="1">
          <mxGeometry x="490" y="910" width="120" height="60" as="geometry" />
        </mxCell>
        <mxCell id="Je-rHfzs1zaMtYx9te_G-80" value="Component" style="rounded=0;whiteSpace=wrap;html=1;" vertex="1" parent="1">
          <mxGeometry x="170" y="1030" width="80" height="50" as="geometry" />
        </mxCell>
        <mxCell id="Je-rHfzs1zaMtYx9te_G-81" value="Component" style="rounded=0;whiteSpace=wrap;html=1;" vertex="1" parent="1">
          <mxGeometry x="270" y="1030" width="80" height="50" as="geometry" />
        </mxCell>
        <mxCell id="Je-rHfzs1zaMtYx9te_G-84" value="Context" style="rounded=0;whiteSpace=wrap;html=1;" vertex="1" parent="1">
          <mxGeometry x="170" y="1090" width="470" height="40" as="geometry" />
        </mxCell>
        <mxCell id="Je-rHfzs1zaMtYx9te_G-85" value="Module" style="text;html=1;strokeColor=none;fillColor=none;align=center;verticalAlign=middle;whiteSpace=wrap;rounded=0;" vertex="1" parent="1">
          <mxGeometry x="370" y="1160" width="40" height="20" as="geometry" />
        </mxCell>
        <mxCell id="Je-rHfzs1zaMtYx9te_G-88" value="" style="endArrow=classic;startArrow=classic;html=1;entryX=0.5;entryY=1;entryDx=0;entryDy=0;exitX=0.056;exitY=0.017;exitDx=0;exitDy=0;exitPerimeter=0;" edge="1" parent="1" source="Je-rHfzs1zaMtYx9te_G-1" target="Je-rHfzs1zaMtYx9te_G-15">
          <mxGeometry width="50" height="50" relative="1" as="geometry">
            <mxPoint x="70" y="310" as="sourcePoint" />
            <mxPoint x="80" y="260" as="targetPoint" />
          </mxGeometry>
        </mxCell>
        <mxCell id="Je-rHfzs1zaMtYx9te_G-89" value="" style="endArrow=classic;startArrow=classic;html=1;entryX=0.5;entryY=1;entryDx=0;entryDy=0;exitX=0.056;exitY=0.017;exitDx=0;exitDy=0;exitPerimeter=0;" edge="1" parent="1">
          <mxGeometry width="50" height="50" relative="1" as="geometry">
            <mxPoint x="189.99999999999983" y="310" as="sourcePoint" />
            <mxPoint x="190.8" y="248.98" as="targetPoint" />
          </mxGeometry>
        </mxCell>
        <mxCell id="Je-rHfzs1zaMtYx9te_G-90" value="" style="endArrow=classic;startArrow=classic;html=1;entryX=0.5;entryY=1;entryDx=0;entryDy=0;exitX=0.056;exitY=0.017;exitDx=0;exitDy=0;exitPerimeter=0;" edge="1" parent="1">
          <mxGeometry width="50" height="50" relative="1" as="geometry">
            <mxPoint x="319.2899999999998" y="311.02" as="sourcePoint" />
            <mxPoint x="320.0900000000002" y="250.00000000000014" as="targetPoint" />
          </mxGeometry>
        </mxCell>
        <mxCell id="Je-rHfzs1zaMtYx9te_G-91" value="" style="endArrow=classic;startArrow=classic;html=1;entryX=0.5;entryY=1;entryDx=0;entryDy=0;exitX=0.056;exitY=0.017;exitDx=0;exitDy=0;exitPerimeter=0;" edge="1" parent="1">
          <mxGeometry width="50" height="50" relative="1" as="geometry">
            <mxPoint x="449.9999999999997" y="310" as="sourcePoint" />
            <mxPoint x="450.7999999999999" y="248.9800000000001" as="targetPoint" />
          </mxGeometry>
        </mxCell>
        <mxCell id="Je-rHfzs1zaMtYx9te_G-92" value="" style="endArrow=classic;startArrow=classic;html=1;entryX=0.5;entryY=1;entryDx=0;entryDy=0;exitX=0.056;exitY=0.017;exitDx=0;exitDy=0;exitPerimeter=0;" edge="1" parent="1">
          <mxGeometry width="50" height="50" relative="1" as="geometry">
            <mxPoint x="569.9999999999998" y="311.02" as="sourcePoint" />
            <mxPoint x="570.8" y="250.0000000000001" as="targetPoint" />
          </mxGeometry>
        </mxCell>
        <mxCell id="Je-rHfzs1zaMtYx9te_G-93" value="" style="endArrow=classic;startArrow=classic;html=1;entryX=0.5;entryY=1;entryDx=0;entryDy=0;exitX=0.056;exitY=0.017;exitDx=0;exitDy=0;exitPerimeter=0;" edge="1" parent="1">
          <mxGeometry width="50" height="50" relative="1" as="geometry">
            <mxPoint x="699.2899999999997" y="310" as="sourcePoint" />
            <mxPoint x="700.0900000000001" y="248.9800000000001" as="targetPoint" />
          </mxGeometry>
        </mxCell>
        <mxCell id="Je-rHfzs1zaMtYx9te_G-109" style="edgeStyle=orthogonalEdgeStyle;rounded=0;orthogonalLoop=1;jettySize=auto;html=1;" edge="1" parent="1" source="Je-rHfzs1zaMtYx9te_G-94" target="Je-rHfzs1zaMtYx9te_G-107">
          <mxGeometry relative="1" as="geometry" />
        </mxCell>
        <mxCell id="Je-rHfzs1zaMtYx9te_G-94" value="" style="rounded=0;whiteSpace=wrap;html=1;" vertex="1" parent="1">
          <mxGeometry x="1010" y="810" width="480" height="240" as="geometry" />
        </mxCell>
        <mxCell id="Je-rHfzs1zaMtYx9te_G-95" value="Component" style="text;html=1;strokeColor=none;fillColor=none;align=center;verticalAlign=middle;whiteSpace=wrap;rounded=0;" vertex="1" parent="1">
          <mxGeometry x="1205" y="1070" width="40" height="20" as="geometry" />
        </mxCell>
        <mxCell id="Je-rHfzs1zaMtYx9te_G-99" style="edgeStyle=orthogonalEdgeStyle;rounded=0;orthogonalLoop=1;jettySize=auto;html=1;entryX=1;entryY=0.5;entryDx=0;entryDy=0;" edge="1" parent="1" source="Je-rHfzs1zaMtYx9te_G-98" target="Je-rHfzs1zaMtYx9te_G-94">
          <mxGeometry relative="1" as="geometry" />
        </mxCell>
        <mxCell id="Je-rHfzs1zaMtYx9te_G-98" value="User" style="shape=umlActor;verticalLabelPosition=bottom;verticalAlign=top;html=1;outlineConnect=0;" vertex="1" parent="1">
          <mxGeometry x="1620" y="900" width="30" height="60" as="geometry" />
        </mxCell>
        <mxCell id="Je-rHfzs1zaMtYx9te_G-108" style="edgeStyle=orthogonalEdgeStyle;rounded=0;orthogonalLoop=1;jettySize=auto;html=1;entryX=0;entryY=0.5;entryDx=0;entryDy=0;" edge="1" parent="1" source="Je-rHfzs1zaMtYx9te_G-107" target="Je-rHfzs1zaMtYx9te_G-94">
          <mxGeometry relative="1" as="geometry" />
        </mxCell>
        <mxCell id="Je-rHfzs1zaMtYx9te_G-107" value="&lt;font style=&quot;font-size: 19px&quot;&gt;Other Component&lt;/font&gt;" style="rounded=0;whiteSpace=wrap;html=1;" vertex="1" parent="1">
          <mxGeometry x="800" y="800" width="120" height="260" as="geometry" />
        </mxCell>
        <mxCell id="Je-rHfzs1zaMtYx9te_G-110" value="&lt;font style=&quot;font-size: 18px&quot;&gt;Context Access through Hooks&lt;/font&gt;" style="rounded=0;whiteSpace=wrap;html=1;" vertex="1" parent="1">
          <mxGeometry x="1060" y="830" width="390" height="50" as="geometry" />
        </mxCell>
        <mxCell id="Je-rHfzs1zaMtYx9te_G-117" style="edgeStyle=orthogonalEdgeStyle;rounded=0;orthogonalLoop=1;jettySize=auto;html=1;entryX=0;entryY=0.5;entryDx=0;entryDy=0;" edge="1" parent="1" source="Je-rHfzs1zaMtYx9te_G-111" target="Je-rHfzs1zaMtYx9te_G-112">
          <mxGeometry relative="1" as="geometry" />
        </mxCell>
        <mxCell id="Je-rHfzs1zaMtYx9te_G-111" value="&lt;font style=&quot;font-size: 16px&quot;&gt;API&lt;/font&gt;" style="ellipse;whiteSpace=wrap;html=1;aspect=fixed;" vertex="1" parent="1">
          <mxGeometry x="1010" y="900" width="80" height="80" as="geometry" />
        </mxCell>
        <mxCell id="Je-rHfzs1zaMtYx9te_G-116" style="edgeStyle=orthogonalEdgeStyle;rounded=0;orthogonalLoop=1;jettySize=auto;html=1;entryX=1;entryY=0.5;entryDx=0;entryDy=0;" edge="1" parent="1" source="Je-rHfzs1zaMtYx9te_G-112" target="Je-rHfzs1zaMtYx9te_G-111">
          <mxGeometry relative="1" as="geometry" />
        </mxCell>
        <mxCell id="Je-rHfzs1zaMtYx9te_G-118" style="edgeStyle=orthogonalEdgeStyle;rounded=0;orthogonalLoop=1;jettySize=auto;html=1;entryX=0;entryY=0.5;entryDx=0;entryDy=0;" edge="1" parent="1" source="Je-rHfzs1zaMtYx9te_G-112" target="Je-rHfzs1zaMtYx9te_G-113">
          <mxGeometry relative="1" as="geometry" />
        </mxCell>
        <mxCell id="Je-rHfzs1zaMtYx9te_G-112" value="&lt;font style=&quot;font-size: 16px&quot;&gt;Logic&lt;/font&gt;" style="ellipse;whiteSpace=wrap;html=1;aspect=fixed;" vertex="1" parent="1">
          <mxGeometry x="1130" y="900" width="80" height="80" as="geometry" />
        </mxCell>
        <mxCell id="Je-rHfzs1zaMtYx9te_G-115" style="edgeStyle=orthogonalEdgeStyle;rounded=0;orthogonalLoop=1;jettySize=auto;html=1;entryX=1;entryY=0.5;entryDx=0;entryDy=0;" edge="1" parent="1" source="Je-rHfzs1zaMtYx9te_G-113" target="Je-rHfzs1zaMtYx9te_G-112">
          <mxGeometry relative="1" as="geometry" />
        </mxCell>
        <mxCell id="Je-rHfzs1zaMtYx9te_G-122" style="edgeStyle=orthogonalEdgeStyle;rounded=0;orthogonalLoop=1;jettySize=auto;html=1;entryX=0;entryY=0.5;entryDx=0;entryDy=0;" edge="1" parent="1" source="Je-rHfzs1zaMtYx9te_G-113" target="Je-rHfzs1zaMtYx9te_G-121">
          <mxGeometry relative="1" as="geometry" />
        </mxCell>
        <mxCell id="Je-rHfzs1zaMtYx9te_G-113" value="&lt;font style=&quot;font-size: 16px&quot;&gt;State&lt;/font&gt;" style="ellipse;whiteSpace=wrap;html=1;aspect=fixed;" vertex="1" parent="1">
          <mxGeometry x="1280" y="900" width="80" height="80" as="geometry" />
        </mxCell>
        <mxCell id="Je-rHfzs1zaMtYx9te_G-120" value="" style="shape=image;verticalLabelPosition=bottom;labelBackgroundColor=#ffffff;verticalAlign=top;aspect=fixed;imageAspect=0;image=data:image/png,iVBORw0KGgoAAAANSUhEUgAAAggAAAFfCAYAAAArnzSxAAAgAElEQVR4XuxdB3iUxRY9m7K76ZTQEnqRjnQQRLAjNlBExQ5iF7vYUMGCFXl2FFQEUUAB6UoV6SV0CCCQQgghvW+2vu9M8iebsJtskt1kdzPzHp+wO//MnTOz/z1z5947quPHj1sgi0SgjiKQlZWFjz/+GElJSXUUATlsiYBEQCJgGwGVJAhyadRlBAoKCvD+++8jMTGxLsMgxy4RkAhIBC5CQBIEuSjqNAJmsxnvvvsuzp49W6dxkIOXCEgEJAJlEZAEQa6JOo/Ahx9+iFOnTtV5HCQAEgGJgETAGgFJEOR6qPMIfPHFFzh06FCdx0ECIBGQCEgEJEGQa0AiYIXA7NmzsXPnTomJREAiIBGQCFghIC0IcjnUeQTmz5+PTZs21XkcJAASAYmAREBaEOQakAhYIbB48WKsWbNGYiIRkAhIBCQC0oIg14BEoASBVatWYenSpRISiYBEQCIgEZAEQa4BiUAJAhs2bMBvv/0mIZEISAQkAhIBSRDkGpAIlCCwdetWzJkzR0IiEZAISAQkApIgyDXgrghYLBbwD4tKpRJ/XF327NmD7777ztXdyPYlAhIBiYBHISCjGDxqurxbWBIDZjZMyzZB6w8Ean3h4+PjcpJw8OBBfPnll94NrhydREAiIBGoJAKSIFQSMFndNQgo5CBfV4BNhwxoEAz0aqeGWq12OUmIjo7G9OnTXTMw2apEQCIgEfBQBCRB8NCJ8zaxaTngxUkJSdlYHqWBr68Fo/oZ0KhBSDFJcNWYmWaZ6ZZlkQhIBCQCEoESBCRBkKuh1hGg9cBoNIJXL6/ZZ0JsqlbI1C0yH1d00yAkJMSlVoS4uDhxYZMsEgGJgERAIiAJglwDboKA4pSo0+lwMjYDKw8GF0sWqDZhRE89WkXUg7+/vyAJrijnz5/Hm2++6YqmZZsSAYmARMBjEZAWBI+dOu8QnATBZDIhLT0L6w+acCZFUzwwH5UFPVroMKiLFsFBQfD19XWJw2JKSgpee+017wBUjkIiIBGQCDgJAUkQnASkbKZqCCi+ByfiMrH+iAb5Bl8AhWGOLKFaE27prUeTRvVc5ouQnp6OSZMmVW0A8imJgERAIuClCEiC4KUT6wnDUnwPsrOzsf6gHieSAm2K3adlNgZ2DkJwcLBLrAj0fXjxxRc9ATIpo0RAIiARqDEEJEGoMahlR2URoPWAvgdnzqZh1cFg6E30MVCsByUJkjR+JozsU4DmTV1jRcjNzcVzzz0nJ0giIBGQCEgErBCQBEEuh1pBQPE9yMzMxLLdJpzLKIxcEMVG8sSuEfm4sodWWBGcnTyJ4ZVPP/10reAgO5UISAQkAu6KgCQI7jozXi6XYj2Ijs3CX4cCYLaoUJhhuSTNsoCgyKAQGmDE9T0MLoloMBgMePLJJ70ccTk8iYBEQCJQOQQkQagcXrK2ExBQfA8yMul7YMSpCxqFFthtnRENvVvl47LOAQhyckQDczA88cQTThiZbEIiIBGQCHgPApIgeM9cesxIlMiFU2czsOagFjoRuWBdSqIYrM8bQjRG3N5fh/CGDZwa0cAwy8cff9xj8JOCSgQkAhKBmkBAEoSaQFn2UYyAddbEdQcMOHnBduSCPcgubZ6DId0CnRrRQMLy2GOPyVmSCEgEJAISASsEJEGQy6HGELDOmngqPh0rDgTDZC7xSLRY5T9QWXkqWn+u9rXgtr46tGjmvIgGyvXoo4/WGA6yI4mAREAi4AkISILgCbPkJTIqkQvpGVlYtdeIuHQlayJJgu1jhbLfEIpLm+uK7mhwTkSDJAhessDkMCQCEgGnIiAJglPhlI2Vh4Die3AsJgvrjmhQYLS+W8E2QShsr+g7/kelQv0AI4ZfahBWBGfc0SB9EOS6lQhIBCQCFyMgCYJcFTWCgOJ7kJmVjQ0HDTieFFCk+62IgcpGAoTC2MfCIr63iMOHfq1zRXZFZ0Q0yCiGGlkCshOJgETAwxCQBMHDJsxTxVXyHsQkZGDlgQDoDIr1QFUSqFDMBcohDUWEIUhtwm39CtC0cf1qRzTIPAieuqqk3BIBiYArEZAEwZXoyrYLDwgsFnCXzjsPVkcZcDql0HqgokXAwv8XJUcq/LToXyUkQXFYLHFWLLQ09Gieh2HdtQgJCalWdkWZSVEuVImAREAicDECkiDIVeFSBKwjF07GZeDPfcHl9GfPD8HW5xYE+Jtxax89WjYLq5YVgfdBTJw40aU4yMYlAhIBiYCnISAJgqfNmIfJq0QupGVk4e/9JpxOViIXyip9B5wUiywMCgTMrtirpQ6Du/COhqAq3/SYl5eHZ5991sOQleJKBCQCEgHXIiAJgmvxrfOtK5ELx2MzsfawBvnFvgeFxwklxZogWMNmPwSSteoFGHBzbwOaNa56XgR53XOdX6YSAImARMAGApIgyGXhMgQU34Ps7GysO6BH9HlmTayM5YCiVVy/X+tsDOoSXOWIhrS0NLzyyisuw0E2LBGQCEgEPBEBSRA8cdY8ROaSyIU0LNsfhAKjcueCbZ+CkmHZsiwUflbanlDYDn0Rbu9XgMgmVbMiXLhwAW+88YaHoCrFlAhIBCQCNYOAJAg1g3Od60XxPcjMzMTS3SacFVkTGbVwcV6Di4lB2eMGhTDYO4YAukfqcPWl9EWofHbFhIQETJkypc7NkRywREAiIBEoDwFJEOT6cAkCivUgOjZL5D0wW8omQVKUvdXnF5GHItFsfV7ms1CtESN6GtA6ovLZFWNjY/Hee++5BAfZqERAIiAR8FQEJEHw1JlzY7mtIxfWHTDiZJISuaAcEihnBWWsCaWUflFd68/KGTMjGvq00mFw14BK+yKcOnUKH374oRsjKkWTCEgEJAI1j4AkCDWPudf3qEQunIpn1kRtmciFsgcKFR0fMHHSxUmTlFasvwvVGHHnZQUIb9iwUnc0REdHY/r06V4/L3KAEgGJgESgMghIglAZtGTdChGwzpq4dr8B0eLOBdvhjMyQaK3gCxsvcUbkv6yzJxY6KNrzTyis3adlDoZ0CxK+CL6+voXZGisoBw4cwFdffVVRNfm9REAiIBGoUwhIglCnptu1g7XOmngqPh1/7guC0WytoO1ZC8rLdVA+IShrj/D3NWPMAB1aNHU8omHXrl2YNWuWa8GRrUsEJAISAQ9DQBIED5swdxZX8T3IyMzCst0mxKWpKxDXHjGofBSDdUc9W+gwrIcWIQ5GNPz777+YO3euO0MrZZMISAQkAjWOgCQINQ6593ao+B4cPZOFvw+rUWC0urGx1LDthyuWRcdossBoMsNc/EVZUsEvSh8j0BfhkgggOEhbeIkTvy/npOH06dM4ePCg906MHJnXIWAxmwFDJsw5MYA+0+vGJwfkHghIguAe8+DxUii+B5lZzJpoQPR57UXeAoWqvERT8xml0FegrDNivt6I1s0CccPAJohoGABfn4r9CZT2/Hws8PMDfOiDUIEfgr5AjwJ9gcfPgRxA3UGAxDk6NhN/bo7F+cN/wpJ5rO4MXo60xhCQBKHGoPbujkqyJmZg2f4A6AyFWRMFBbAXqij0fSFlKOt8qNObMLh7Q9x7XQto1UoGRscxVKks0PoDPj6qCh0VeZsjr3yWRSLgaQhk5RnxxR+nsX/jjzBnnvA08aW8bo6AJAhuPkGeIJ515MLqvQacTGbkQlEp3r1bSl+rUM7AjGYLWjQJwMt3d6gSOSi2IvhaoKYVwUc56rDdaX5+PvR6vdtATWuKVlt4PFKZwjEYDIbKPOL2dTmer2fNcYmcVw4ZhB7durik7Zps9HyaHtO++xtn9/4CmN1nHdckBrIv1yAgCYJrcK0zrVpHLpyMS8eSvcGwkBTYtBo4cnsjUGAwY/zNrTC4W8Nq4cjeNP4W+PqWb0Xgdc/upFhJEIKCglBwdA9052IqxMBHG4Twq0eCt1K60zgqFNyBCvk6HW6564EKa3Id+qlUwlfFUQ+Xpx8Zh1tGXF9h2+5egccNP648jTXz3wEM2e4urpTPgxCQBMGDJssdRVUiF9IzsrAqyojTydZZEyuS2LbDoc5gxGv3dUSH5sEVNVDh9/6+Fvj7qcRRg72Sm5sLo9FYYVs1WYEWhIKofxD9yr3l+1BYLAi/ZhTavfkdMjIyalLEGunLEYLgr1LhtuAgdPD3FwRhcU4OovUVW1K8hSBwIhZsuoBFM1+BRTos1si6rCudSIJQV2baReNUIheOxWTir0OaoqyJthS/4wLoDCZMfqAT2kUEOf6QnZpMwaypwBchJycHJpOp2n05swEmeQoJ0GD/2IHQJ58raZqWGSunS5WfP9o+/zGCrhwJ+lJ4W3GEIHTXqHG5VosfsrLRys8P48JC8UZKKiqifN5EEBZtTsGCbybBovc+kuhta9qTxiMJgifNlpvJqvgeZGdnY+1+PY4kWvke2JXV+trm0imUFUdFZxIEisHkSYVWBNtn+u5IECh3aGgoEr6cjMTFs4pJQbMxj+H84lmwFFk81E2ao+N7P0Ef3gLWUSFutlSqLI4jBOGB0BDs1OmE1YD86en6YTih1+PvvPxy+5UEocrTIh+sIwhIglBHJtoVw1QiF2LPpWHJ3iDoLsp74OhpcGnpnE0QSEm0aovNiAYqVRIEjsXdikajgf7AFpx8ewLMBToEtOqATh/Mx/klPyBx4dciAiSszxVo+/Zs5BrdywLiLCwrIghNfH1xV0gw5mXnoK2/H7LMZiQbTZhYvx5mpGcgo5x5lQTBWbMk2/FWBCRB8NaZdfG4rCMXluw0Ii6d1gNbhMAxx0RrcZ1NENi2ny+PGi52ViQxoA+COxIEEc2Qm44Trz+I/NjjiLjzSTQb9zLMKYk48sxIFFxIQOun3kXYTfd75fEC5608gkCL01sNG2BjXj4u02qRZDKhqa8vNuTlI8LPT5CDf/LtWxEkQXDxS0I27/EISILg8VNY8wOwjlxgspalUYFlhCjxQSh1g3M5eY6sqUWBE30QFMF4bC8iGsrkRXBngkDZAzVqxH/6AtK3rkG3b/+CoUEzBPj7IWHmVFxY/jMu/WUn9EH13M7J0lmrsjyCQKfE5+rXw7S0NNwVGoIPUtNxqUaD64ICsCA7BzcHBWFmZiYsdtJoSoLgrFmS7XgrApIgeOvMunBcSuRCWkYW/tpnxImkMpELZcIcy2ZJrCgOTRCEB53jpGgNQ2FEQ+m8CHROZJhjbVsQ6B+hEC9rmdVqNXTb1yD35GE0Hf8K8vLyxS2VOHMEF5bPRetXPgd9QLzR/6A8C4IfgEfDwrA+Pw/njCa8VL8e3ktLx5AALUJ8fLAsJxcT6oViXW4+TtrJDVFXCIKfnx969uyJ8PDwi94Kx48fx5kzZ6r0tggICMDVV1+N2NhYHDp0qEptlPeQv78/evfujfPnz4s+aqO0atUKnTp1KpVsbffu3UhNTa0NcWq8T0kQahxyz+9QiVw4GZeBFQc0yNdXPtNheSi4iiAwu2KAmv5+JUcNDG8kQagtBUtiwKup+RInrvSHUEIuSQToqKgym2GxmJGrKxAJnSh/cFAgqCRVao3IAsljEmeW5ORkzJ49G23atMGdd94pmiZGq1atEvdWTJgwoVjhbNmyRbzA77nnHlHn008/FfJQ/qZNm+L6669HixYtqiSePQtCpK8vbg0JwlfpmQKPMcHBiPD3hcqiwi/Z2bhgMqGz2l9ENLx4IcVmNs26QhCoyF988UVceumlYk6YY4M5M1h+/vlnLFu2zOG5mTp1KpYuXYqoqCgx/2+//Ta2bduG+fPnO9yGoxW59t944w3s3LkTf/zxh6OPFdfjuqOMCxcurFJ+EP4277vvPtx1112lQojff/99lxCiSg+wBh6QBKEGQPamLqwjF/7ap8dRhyIXrBGw55NQcizhKoJAKcpGNNQ2QeARQsaKuUhY+C0aXD4czR9+DTlGs1BoocFBiP38daRvX4tmt41Hg1EPIy8/X0Rj+Kedx+lPnocpJwttJr4H3059nJoumi/kSZMmoV69elixYoVQ9CQnDz/8MNasWSMIwltvvQVaOD777DPwRszFixcLxdOuXTv07dsX3H2dO3dO7ACffvpp3HvvvRWmvS77W7FHENr4+WFAgAa/ZueKA4QQHxVmNWmMf/N1+DYjC0ZYEO7rg4/Dw/FQ0gWbP8G6QhCsB9+jRw+89tprQvExqRbXGclbSEiI8GOJi4srVqb8PCwsTHyemJiIRo0a4euvv8Zvv/2G7du3IyYmBs2bN0d6erogtqzPnXXjxo3B3T+fUXJzkARHRkaKz7mO+B7577//xFrmGrOV5IsEgWuMBIFKnoXyNGvWTPz9woULSEtLK/6c7bO9hIQEsS4feughNGjQQJCgs2fPXpQnhGRp+PDhiI+Pt3lZG9t68MEH0bVrV7zwwgul1hCJR2BgoMCGuNCKx35pkaSMxEApJNv169cXdVJSUsTHDRs2FLLxGT5PnCIiIgQ2nAM+z+9ZPykpSWweOFf8nM/yvUW5mQXWlUUSBFei62VtW/senD6bjsV7A2EwVS4dsCOQuJIgiOyK6hJfBL4k+SOrLQtCgCEP/73+AHJPHoJfWAN0+3IFCsIaiRedxlSAqJHdAIsZPtoAdJu5Finb/kZARGuYUs4h9uu3YTEa0Gz0I4h8YkrxrtARjMurw5fPSy+9JGTg7nL69Om4+eabiwkClQBf/rwimy9PWwSBVoT7779fvBS//fZbYY349ddf0atXr0qJZ48gBPuoMC40FMf0eqSYTLg6MBAJRiNCfXyQY7YgSqfDlYGBiDEYsDIvz6YXQl0nCJznm266CbfddptYO1RsO3bsEHNFa8Mjjzwi5o+fc+6uuOIK8YdzT1JA6wGJH8kCze6vv/66IKlUYrRSHD58GF988YVQfiSbJIz8nfF7Kr3nnnsObdu2xVNPPYVffvlF9G1dyhKEli1bimeUNOSU+csvvxRKlpYNkhyWAwcOCDlGjRolLHMkqSQ1mzZtKtU+yQotK5Rz+fLlF63L8gjC2LFjcdVVVwmCQHyI5TfffINdu3YJjPg9FTqJwbx58wSemZmZ4rdAEkGizd8OsX7sscfEO6hJkybiGRKiLl26CMsiCRB/fzwGUuaEzxMDzsO0adNc6qAsCUKlXld1u7Lie8CF/sdOE+LSNKVuZ1SiGKwdDpWrmIicozEOJAhvPtgJbSOCLnqxl267ZD7sBVTaslfQF0GJaKhtghCkUSNu+ktI3bAEod0HoMOUWciBn1DOfEEeefJG5BzdiwZDb0aj60bjv/efgiayLVo/Ohkn3hoPs16Pti99guAhN4mjEmcU7gZpnp05cyY++OADsTN85513xC6GLzYeO/DsmlYFkoMZM2ZcZEFQCALloTJge3xpvvzyy5USsTwnRW1RBsUGvr5YnpOLGKMRPOxi0qQBgVr8k5ePnboCuzd913WCQIX07rvvYuPGjYLsDRs2TCjryZMn44477hA7ZJr4uRb5h+uLipRK/++//xY7/ylTpmDz5s3gMdOHH34o6nGOqcxJGPg9j5+oGF999VWxFv73v/8JS8SePXvQsWNHvPfee+IzWqHsEYTff/9d7OL79++P8ePHCyvHTz/9hJUrVwqCwjZIWI4ePSrkIimhlYtr9OOPPy6lRKmESQ4YRvzMM8+IZ9gO17d1qnKFIPCIjXKzcN2zL5InHj1w/dOixt8KiclXX31VfERI3wViQhwoB60Rzz77rGiHvyfizqvmidG6detEG5988glat24tSAFxJbng3KxevVrMCwkJ2ySB+Oijj/D555+L/l1VJEFwFbJe2K6S9+BYTBZWHtBCb7IdlkBSUPZ2xsrAYU0Qyj5XvRyNha0p2RUZ0aAQhMrI58y6fEn552VBF38KmlYdYNQGFx8VcJeg1ucj98RB+PirEf/Tx8javw0+Gi0i7pmIkK79RMIkTdPm8GnW2ml+CH/++afY2fzwww9iN8MXEhUDz7JJENq3b49+/frh+eefF/VYp+wRgzVB4I5n0KBBGDBggHihVaaUJQhlCaLKAphVEMSARbmLgWSWV337qwCDHfZY1wkClQx33pw7Kn+uxWuuuUYoQO7Gx40bVzy3+/fvF7+ViggCj6ZYh8qVvgokmDxKIKngH1oeaJ0iqWSb5RVrCwIVJGXlbp3EgmXgwIHYu3cvfvzxR+H3QmsHFS3XI61c9ggCTfkkQlTaNO9T6XLTw7a+//77YgWvEAQSp0WLFok+2S59LkgQbrzxRowcOVJYRZ588kkhGxU8jwlIvkh6aBWhZYFki+SBf2dfPOah5YC/Jf599OjRgqBMnDhROJQ+8cQTQi7OxZEjR4QPBmXjsQItJiQ4I0aMEJYdEiVXFUkQXIWsl7Wr+B5kZObg7wN6RCdqi8LHHEmGpBAJR+rysqYSC4KrYFQXRTTwx1ybVz0HajVInPkOmo58EJYmLUvtdGimzT+wFXHfToUhPRmGtORiOFRqLTThTQGVDwJatscl0+aKl291C+f52muvFeecPKfmGSgJAk25Q4YMEQShQ4cOghzw7zSBXn755di3b18pHwRrgkCLxNChQ8UxBXd5lSnWBIF3LgwL0KKtvz8O6vXYmqcTVFSknlbiaYv+rqw0XxVJg0q8xIVzqlXndZ0gdOvWTexeObeK9YkkIDo6WpDN7t27i+MH/pfKff369RUSBPoK0JGVhT4pXAfHjh0TToxcB0r73CFToVdEELheqGT/+usvQRAol9I+55S+BTyzp//BlVdeKRxq//nnHzEm+rzYsiDw2IGmfxJwkogTJ04IYqEQBeW4sbwjBhKEG264QRxjsPC3QFJAgkBFT+XP3xE/p68EFTqtB6xz8uRJ4UdBKwKP3GhZuf3220U7jz/+uCDf/C/fS5wfykcLCgn72rVrBeFSyqlTp8RRg6uKJAiuQtbL2lUiF+h7sDQqoOjOBdcMsiYIgoho8Af0+sLIgNoofAGpU8/h+Kv3of2b38KnTRfxUhAJkjQaIDURx54fDf2FhHLFC+7SB92+WS0IQnV9KRihwF0knc/4UmMhCejTpw/mzJkjXqgkCDR3khSMGTOmeCdm7aSoEATKQ1MpX6gkGtxxVaZYE4RAFf0OQkRK5XSLCR391Wjq54s9ugJcGRCAAwUFSDObEaxSIdLPT9zFEOijQpSuAN00aiQajFiZl1981FXXCYJydMR545EBC60INM9TkVGhc/4UUz6tRfRJ4a6VO3quUypw6yMGWwSB9bhuuH5oqifpZB9c6yTBPDbgulNCB1mfBJVn8Nxd06JF+ahIufaoaKnMKavye+EOneThlltuEdYqykVCShJEpc3+yt5V4qgPAnf0b775ZvGyZT90gLRHECgjyQyPUeibwfcLfQz4u6LPA58nliQ6dOZ1hCAQV/obkAxxPvg+pkWPfhiu3OBIglCZt1UdrWudNXF1lAHR563uXCjakllv4MrCZPPmZ4boWW3nip8HUGB0vQWBMvr7mGE2FVQpBMoZS4E7mNx/V+DUB8+g4dCb0erlz4Q53N9Hheyd6xE38x0UJJwp/zZHH180f+AFNLnnmQp3ZBXJzHnmmTTNqXzp02TKz3gGSkLAs06ajBWCwPb4Oc+XBw8eLEzKShQDTaQ0zdIkyt0jd0ysx5d6ZUpZgvBYWCjSzWakmkxo7OuL9mp/7NcVoJNajSW5ubgrOBhLcwqTJOXBgk15+bgzOBiJZhMa+fri9ZQ06IoWW10kCLQGUOnSgZSFpm3+YUQCC3f4PFenEqaJn8qHc8fzbhJCPss2SBq5u+X5Onfs9EFgnQULFgjywEKzOC0F3EHT3M7dLtvn7p1hkrRKcAfN50golbN07vAZSkgvfipBOjjSUkBlT58BFpIMHoNQcVL50sTPaBk6PbJ/Oj3SCZDykpRwB17WSZFRDDym4PfWu3JlfZKo0ApBXwMqZqXwmIDHZSQItLCw0FJA50uSEfpvkEDQEsOihIHye+WIjbgRDxKEV155RcwBy6OPPioIEy0IJBYkOrQgkJSR+PBzYk+yQ18L9sfvXVUkQXAVsl7SrnXkwsm4dPy+Jwhmi/WFSyUDrdxBgn2A9DVEEITbpJFJkmrnHgO+gM99/x7O/fol4OePyLFPo+GwW3Du18+RtuUvmHXlOB2K3AgWNBpxN1o+8TbyUJhHoTqFu6wHHnhAJKdheJlSqDyYEIfnozynpWMZX3AsNG/efffdwpGRRIIvLn6veFrzjJf5EXhcQcJR2WJNENQqFW4MDERLtR9SjSac0BvQ1M8PGhXQ2t8f/+bno6dajQU5uRgcoEW+xYzDOj16arVo6ueDswYjNuTr6rQFgeF/VCwMveP6oTLmvDBsj8qbu3ia/rkjp0Lj91TwJH5cX/ychIF1qbSpxHk8oYT7sZ4SekcrBM/baW7nEQDJJesxcoLrjGf4bJ8+AVTS1jt8WhD4PPumTMoREa0K7JOWB2u5KD+fYV0qUCpXWuh4xMDfGddwVW475XjZl3XhmEh0+Z3ivEiywrHwN0RSY/0M+yWmxP67774Tz5C48DfCdjgf1u3weWV+SKaINa054obXkBAxTvalWGJceROtJAiVfWPVsfpK5EJ6RhaW7zHhVLK6UgiILIr2TAh2Wqo5ggCYjTrAXDtHDHwxx3/1Js7//l2RlcBShFWZOyPocKcJEM6ImojW4tKmwNadENy1L/wj24gXsrX3daUmqExlvlhpeuW8WRd+zhcU55L/tf5eidEu+0x15FCetemkWMbfQPFBqO/ri0EBWnGLo4FkqayJSvogOGNKKt0G/QJo+qelgWSCPitU2CQMdanwqIJHD7Qi0OfBE4okCJ4wS7Uoo+J7cDQmE6uZNdHgzLwHtmMSapIgWMwmmI2FyXZqunCXkb5yLmI+f73Eya6MECp/NeoNuArh19yOwA7d4dOgCcwqH7H74Nzwv5UlYDU9zur0V9FtjtVpuy4eMVQHr6o+y2X07GMAACAASURBVF0yTfK0FJBEMi8BjyuUbI5VbdfTnmMCMVrnGFLprJBkV2MgCYKrEfbg9kuyJubgr30FOHzOyvfAheOqSYLAYZgNebCYC7PK1WQRyZAykoSTou5c4RmwUkhcAtt2QbuXpyOocx9xqyHPg72ZDNjCXhIEx1bkos0pWPDNJFj0GY49IGtJBBxAQBIEB0Cqq1WUvAex5+h7EACdwbl3LtjDlQThhbvao3vbyp9ZV2WueM+BWZ9TyiJdlXaq8kyAVgvj6aM4v2QWCs6fhcrXFwHN26L+5TcguM8VMJjMdZIYKFjqDQbM+Pr7qkBb4TPXXnkFevXoVmE9d69gtgDz1yVg6ew3YDEU3rEgi0TAGQhIguAMFL2wDevIhaW7jDiVoq2xURpNZlzTtxHuubZqF/xURdDa8kWg1YIOR2oG7OfnwiLupQ4SZ+jKMUJVxiOfqTsI5BWYMWP+Xuxd87lwupVFIuAsBCRBcBaSXtSOdeTC8dhMLNoTWKOjow+a0WTClPGd0bJxYI3s7IUVwUBfBMeSOdUoILIziYAdBMwWC/Ycz8Jn38yHPmGDuLdDFomAsxCQBMFZSHpRO0rkQlpGFlZHmXA8qUzkgr0LEWxiYCc5stKGrWN/C2CyWFAv2A+3XN4UPduHISzoYs96Z0NuNuYX+iI4u2HZnkTAyQiYzRYkZRiw+3gWlqzchKz/VgLyeMHJKMvmJEGQa+AiBJTIBVoPVhzQIK/AKnLB3mUIVbkkoewzZRIpiNhnH96+qIKfrzOjJ+xMugifkxYE+ZNwfwSYu0OXGY+MmC0wpEcDpgL3F1pK6HEISILgcVPmWoFLIheysSZKf1HkgiO3KV6k9x3MoFSVtomGCD5wQK870n7a0V+hT9op/AJqOqrBtTMrW5cISAQkApVDQBKEyuHl9bWVyAXeufD7nkAUGGtg5+5GqJoKspC8+2P4mvMKL/ep4dBHN4JCiiIRkAjUcQQkQajjC8B6+IrvAVOJLtpuRGxazUUuuNM0ZJ1ejbzYv6QVwZ0mRcoiEZAI1DgCkiDUOOTu26FiPTgak4Vl+7QwmGrXXY+OWIEBPmjWUAOtxhc+Neg+aLHwLkAHzi3cdzqlZF6MgNlkRnpqImKO70ZeYhQgEyR58WzX3tAkQag97N2q55I7F7KxZp8BxxI1taoeTSYzmoZrRC6EthFBCFAz/3/NQSYiGkx6ecRQc5DLniqBAP1ps/KMiI7Pw+zfdyL16CKgILUSLciqEoGKEZAEoWKM6kQNJXLh1NkMLN6jQV5R1kQH/f+qhJG9tklWfFQWfPRENzQIqdzlUFUSxMZDFoupKLtiDbISZwkv26lTCETH5eHdzxcgP2Y1YCn/ZlL61PBuBP7h74zpu3n5Fm9X5LXcPF6sSrG+lI13jPAWT+UK6aq05+pnLrvsMlx//fXiGuXjx49XqTvFR6m6t6hWqfMaekgShBoC2p27sY5cWLlXjyOJ5dy54GgOBEfrWQNT9AwzKd46pAluuyKyVmGTVgTeIWVBdnYu8vLyERgYgJCQIGlVqdVVeXHn+Xozvlx4EDuWTweMueVKx0uT7rrrLmi1WkEMeHHS9OnT8emnn4orvHmFcmULFeUNN9yAPXv2iOeHDRuG0aNH46mnnqpsUzVWn1eQ33///XjvvfewefPmKvVLktG6dWusWrWqysSqSh3X4EOSINQg2O7YlXXWxP/i0rFgdxBMFqtdc1lFX96/HRmg9YbcTlsGkwmv3tsBnVuFOtKi6+pYLDAZcupsdkXeOPfHH6tx+PBx8Lpn7jp79eqK22+/EX5+NXMvh+sm13ta5nHDrxsSsXjW67Do7VsAAgMDMWvWLGzcuBFLly4VBKF79+7YuXOnIAjTpk1DvXr1EBsbi9TUwuMKWgM6duwo0n5HR0cLi0NoaKj4w8vGSDT42eTJk7Fo0SIcOXJE/Ltly5bYu3cvmjRpIq4iZ9+83pxtsC2WBg0aoE2bNsjOzhbPJCYminVmqwQEBKBbt27CMnH69GmcOHFC9H/JJZcIktOqVSsEBwdjx44daNGiBdq2bYtDhw4hOTlZNMfnL730UiEvicytt94qCMLXX38tbpVMSkrCsWPHBCGmnD169BAyHz16FPHx8eI54nD27FnxHT8bN24cOnXqhG+++Qa7du2C0Wgs7uPAgQPFGHrySpMEwZNnzwmyK74HGRlZWMI7F5I1Tmi1ek2QILz9UCfhe1DbpbbuaKjtcSclJWPmzHnCajBixNWIjGyKs2cTsXLlevESf/rphxAWVkLgeGGQwayC2tdi05WUXFBvUsHfh8dHtT067+vfkdscr776ajz88MN47bXXcObMmWIQqOznzp0LnU5XfH34008/DbVajRdffBHh4eFCWfLIYNKkScI0P378eGFJosLnd127dkVGRoaos3btWqE8x44di+eee06QECpo/qFip6Wic+fOmDJliniGCj0hIQFvvfWWsDywfP7556XIAnf67INKmPJ+8MEHoBKm9YPEtX79+vD39xfHBc2bNxd9paWlif5JQFgvMjJSkBUSBJKgBx98UPShbJI++ugjQZ5++eUX8TwJCMf40ksvCQLz3XffifokOCQOffv2FZFOJNI//fQTevXqhZ49eyInJwf//vsvvvzyS49faJIgePwUVm8Aiu/B0TOZWL5fg3zDxXkP7G362bOdTMlCqLLf2YoJsNU272FwF4LAa5fNxrw6ZUUwGIyYNWs+GjSoh5Ejh0OjKfEDycrKwbx5fwjicNddt0Kr1SDPqMKqRC3O5vliYEM9BoaX3gWSOKw/r8GxbD90DzPgqiYFkiRU72d70dOOEAT6GQwdOlQoTWtfAyrcH3/8Ed9++61QfCQBy5cvx9atW4VSpfKmMnzhhRfErpum9YkTJ+L9998Xu24Si48//hg//PCDsCAMHjy4FEGg0nznnXfELv/ZZ58FyQePOajU3377bfEsCQuV+JAhQ4TC3rZtW7GlgYPl53xXkQQ888wzwurx/fffi2e4u//5558xcuRItG/fXihrWiYGDhwoiAQJCI8UqPg5PlpFeDRAgrBu3Trs378fL7/8MhYsWICZM2cKApSeno7GjRsLef/3v/+JOiQItCDMmzdPWDuIJ60KlOPUqVNiLLm5ueL7uLi4UiTMydNdY81JglBjULtfR8U3NmbnYE1UAQ4mlON7UAnxq+vYSAvCFDexIHDYZkNe4R0NNRlGUQm8nV31n392YNeufXjssfsQEhJ8UfP5+Tp89NHXuPvukejQoS1WJGixMUmDmyJ1+DMhAJO7ZCE8oOTSoG0X1JgbE4i7WuVhWUIAHmiThx71Dc4Wu0635whBuOOOO3DjjTeKHbFieidoJAhUtLQskDjwe1oGVqxYgXvvvRc333yzUMzcVVOxc6dM5Xr33XcLZc6d9owZM4RyJUG45pprShEEWhhoASDZYB1aJQYNGiT8FpYtW4YxY8YIZ0E6SSq/MbZrXWiNoPy0alCOf/75R+zQKfd///2HDz/8EG+88YYgEqzH9p988klxdEJSxKMIHoNwXOyD7ZHskOTQB4FWj5UrVwrLBckCn+cRDGXnEQKPLkgQKP/ixYuFaM8//zz69esn6hNPEq9rr71WWBDmzJmDP/74w+PXpCQIHj+FVR+Akvcg9lw6FuwKQH5R5ELVW3TOk+5GEMRNj/qcGg2zdA6SlW8lOTkVU6fOwEMPjUHv3t1tNsB39/r1/+Lo0ZMYO+EhfHEyDPe3yUObYCMWxgbgWJY/Xu+WDbWPBflGFf53PBhDGxfgskZ6rE/UYPHZAHzUKxNBfjLPROVnyPYTjhAEmujfffddofC4c6YCpDme/gaKk6I1QTh58qQgDXyGu25aFh577DFBELh7JkFgIUHgLnv27Nlip12WIFChUxFHREQIJUsCQgXNXT4VK/vhrp+mevpAsD3u4BWSQDP+6tWrRdtLliwRFgRaAhSCwGMLHg+QIFxxxRXimIIKnk6SHBd9Bug4+cUXX+DgwYMICQkBnTVJfhQnRRIEOhsSF5IEEhfWfeWVV4TfhkIQvvrqK/EdC+Ug+WAbHAMtIrRgECPiyOMcTy+SIHj6DFZR/mLrQVYWlu4y4MQF51gPqihOqcfcjSAIK4JRB5htO1A5Y8zu0AbPd3/5ZSmysrKF9cDf38+uWKmp6ZgxYxYaDrsL/i06YUL7PEEIUgp88OK+MDzaPheXheuxI9kfGy9oMbFjjiAEPI547UAYhjfLx/AIecGQs+bdEYJAxUvzfv/+/cVZPRUvnf6o+G0RBB4fvPnmm+I8nccDJAY01dsiCFOnThW77cOHDwvzurUPgi2CMGrUKHFsQQdDnuvTL4A7cypVrkMeVygOiyQyCxcuFP9mlASJjnLGTwtCRQSBfXzyySfCGZF/eGRCXwlaQ8oSBDpvksTQR4EbqA4dOoijF1sEgZYVWg147MDnaL2gjLRW0EGS2Hl6kQTB02ewCvJbRy6ciM3Ar7tq3xnQehjuSBBgMcNkyPVqX4RTp2Lx/fe/4I03nkFwcMVr4u+Nu/CTeTCeu9SCfuHMPFlYNidp8GeCFiMjdfg5JgD3t8nHkMYlZGBfqhq/n9Xipc45qKcuOYqowlKWjxQh4AhBYFWSAir43r17ix07d87crV933XXYsGGD8Ce4/PLLhVc/FS934qxL0zx3yPRNoCWAEQHWJnRaA0aMGCHIAY8Z2Ae/p78CiQn9GWiFuO2224QjIC0KW7ZsEb4DrDNhwgRhAWjatKmQkd8p+QWaNG6Mps2agU6W7dq0wV9r1wpFbzYY0DQyUpCM3OxsNAwPR6vWrRG1Zw9y8/NF/ZMnTmDDxo3o1bMnbr/9diSeP48d23cgLDQUzVu2wPHoaLH7v374cMBsxopVq9ClSxeMvesu7Ni1Szg4BgcGYsOmTeL4wGQwYPHSpYIIDB44EG3bt0d4o0Y4GxuLvIICgUtwQABmfPGFsI40bNAAF4oiKTxxsUqC4ImzVk2ZS7ImZmH5XiOOn7efNdGRixiLfQ6KLMZlj+rtGZLtOT/SSdGdfBAUuL3ZiqDXGzB79q9o2TISN954dYUrTG9WYe7pQOw4GodRmqO4/prB8C26kpvzvTxBi+hsf3QJNuD6CB38rXxfeUQx/VgwOocZMSJSV2FfskLFCDhKECpuyfU1GI5I50FGMOzevVs4+tGSwc+U8EprKbqoNbh96BCcVakwJCEBR5o1Q7avHwYknsPe8EZQqdXodSEJW8Lqob5Wiy4pyVgXFIxWan+0z87CcrUWPXx90FKvxyIfX1wOoKkKWAwVhhkNqK/VYIXJgmH5+QgKC8VagxFDs7OgatgQW40mDE1NQVbjxjhstmBY0nnEN22KeKgw5FwCjjZrhixfXwxITERUo0aAP2U5j61h9RGm1SJ67x6suVAYaumJRRIET5y1asqsRC5Ex2Zi+T4NcvU+hWmVK6vJ+Ux5YQxFVzEXN+tgGIMgCOPcI8zRGmoR0UArgpeF6dGkO3fuH+CxwSOP3IPQ0JByVxinceN5DVYmaHFf2AksmTsP998/Gu3atSp+jmGPJBEaO2GPxzL9MPtUkHBc7NtQOixW8ycNTyIIHCsdFhndwJwDKSkp4ryfVouyzomsqzGb8YChAB19fPCFwYiR/n5oZjZhtsmC0VoNggp0mG8G7g4OhCknB0ugwv2hoTiflYmNFhXGN6iHg+kZ2G+x4LFGDbE+JQ0xZgvGhTfA8rQMZJhNuLtBffyemQUYTRhZPwy/ZOegocmMa0KCMDtPh86woL9Wg691egz19blIllkmC+7QqhFcUIB5ZmBsUCDMOTn4VBOATH//6k5vrT0vCUKtQV87HVtnTVwdpceBsy7wPahmGIO7EgTOmDdFNJAoMv/FqpXrcehwNJ5//lE0aRJud2GSGNDpcEeKv4hGoJ9Bp1ADNm7chuXL1+KBB+5Ap07tRehjRYVt8Sji55hA3Nc6DwPC9QjwlU6LFeFm73tPIwiVHafWZIKPxYI8Pz8EG40wqFQo8PVFmMGAXF9fGH180ECvR7q/PywqFRoVFCBFrRZ/b6rTIYmppVUqRObn45xWK/4ewb8HFL7/mrCOtvD22oYFBUjVaER/oQYDMtRq+JvNoAzZ/v7iv4osQUYjjEWysG6eDVkqO1Z3qi8JgjvNRg3IokQunElg5EIgdDbyHtSAGOV24c4EodAXgdkVPa/QUnD8+ClkZjJznR6JiUk4ejIeGUGRuPqG6xHeqKHdQdFTIE3vg+hMPxgtwG3N88URAZMeGY0m7N69HwyPDA4ORJs2LYUVovDIoXykDqT7Y7cxEp3atUCnemaE+RcmUqKVpk2QEZGB5d8t4Hmz4BqJvZ0guAY12WpFCEiCUBFCXvS94ntAB58F2ww4k1LImN2tuDVB8OCIBuYvWLJkDeLiEmBWB0HfsC0MrfvCN7Qh/PzKN4P6+VgQrjZjQEM9Lgkz2tzt5+Tk4uTJM4iKOoT09Czhje5IMfioYWzaCWjbD74hDQAfP0EQrm6qw6AySZccaa8u1pEEoS7OuuvHLAmC6zF2mx4U68GxmCws2qOFyWx7d+fAdQliTFU5SXCkbRKEqW7og6BMpLjp0VC3siu6zSKWgthEQBIEuTBcgYAkCK5A1Q3bLIlcyMaqKAMOn6v4nLi2huHuBIG4yJsea2t1yH5tISAJglwXrkBAEgRXoOqGbSqRC6fiM7BotwZ5bpI10RZUnkAQhBVBZFf0RG+EEtSVnBiMVeffuU6YmEYpvJhG+bfZbAGzSvLfrMfvmIKXf+f9DWq1v8BD8URX/p6bmweTiXn0C1PXsq4S485++BwLP2dyJk/HtDZ+/pIg1Abq3t+nJAjeP8fihc3zYCb9WLmXdy4EuvWoPYEgCCuCIR8Ws96jFdqRIydw+nQsRoy4CjpdAZYu/Qv9+l0q7liIjY3H6tUbcc89o7B5807s3LlPRCh06dJBfL948Uq8+ebzOHMmDp9+OhPvvjsJWq0ab731KerXr4dHH71XEAje20ASkJenw4ABPYVT44EDR5GRkSnaGTSoj+iHjo0REU0wcuT1IlmOLI4jIAmC41jJmo4jIAmC41h5ZE3rrIn/xafj151BMBb5Hljfh+LoRtjeM2U/r07bJrN7+yAULwSLBSZDtkdGNHAMXBsrVqwVl/X06tVVZLzbuTNKKGcqdpKBM2fi0bXrJSKt8oQJ96BVq0hhDUhOTsEPPyxA//49RVTEjh178dlnUwTZYE6Ftm1b4sorB6F16xbi2aFDB4oICkZPPPjgGOzbdxg7dkTh8cfvF46Ns2f/hksv7YIBA3qhW7eOHk26auNFIQlCbaDu/X1KguDlc6z4HmRkZuH3HUb8d0FTEnnmjLBzW6kWq+K9aDUPNF1PHe9+iZJsLRVPzq4YHf0fkpJSxK6df6dC37v3EAYP7iduc+zZsyvWrt2Mdu1a44svfsBzz01Aq1bNBbEgESBBGDiwt7AEbN8ehY8/nowlS1bDaDSIG/dYRo++EdOmfSmIAdP4khB07doRe/YcwJYtu/Hssw+LowWSB/47Pj4Bkyc/61AuBS//6VZqeJIgVAouWdlBBCRBcBAoT62m+B4cOZOJP6M0yK9O3oOyir86RKCctjyJIIjsikbPi2jgkdOff/4tjgt45k+T/5AhA8RxAQmCUlat2oBBg/pi9eoNgkQ0aFAPkZHN0KXLJfjzz7/w6qtPISYmHp999j2eeuoh/PHHKvTs2QU5OXk4dOgYnnjiAfz88x8YO3YkVq1aL54fNeoG7N9/BNu27cVTTz0ont+4cSsKCphR0YLx4+8WFgxZHEdAEgTHsZI1HUdAEgTHsfK4morvQWZWDpg18eBZrd1syu40OBKEtx7qiA7Ng91JLLuyeGJ2RToc8rIe5VIm5khgYiN+bp0JkQ6GAQFacaxASwH/GxISJBR44fW8YTAYDEhPz0RYWAhyc/MFCeAc8jP6FTA/QlhYqLjghv3Urx9WbFEofN6IzMws8D4IthEU5N4+Mu64KH/beAG/f/cKLPpMdxRPyuShCEiC4KET54jYivWAWRN/26lFnr7EO92R52urjslsxoM3NMc1fRrXlgiV6pee/YURDZV6TFaWCDgFAb3Rgu//PI4Ni6YBhhyntCkbkQgQAUkQvHQdWEcuLN2lx9HEwjPhyrgdVMa9wJFbH8tCba99s8WCZg398daDnRCk9QxvdvoiWEwF0rnOS39P7jysuAs6vP/NCiQf/p2hNe4sqpTNwxCQBMHDJswRca0jF07EZWDe9qAKiUF13Akqkqkq5IFWhO5tgjHx9rYI9ASSwDsapBWhoqUgv3cyAunZRkydE434XbNgyY13cuuyubqOgCQIXrgCSrImZmHpbiOiz7tv1sTy4OcRSfNGGlzWtT4a1dPAx81t+BaTHkygJE8avPBH5WZDMprMiDmXhs27jiP15FpYcmLcTEIpjjcgIAmCN8ximTEovgfHYjKxNEqNXMX3QDlfsKXB7J092Ls8QenT3jmBtUxVbVsciTB7X2UORmpvQk36bOSeWgpfix4+vJJQFomAixAQvwlTPiwFKYAx30W9yGbrOgKSIHjZClB8D3JyckTWxH3xAbgoaVFl9K2KCXVKQCql9sp+V9mzhAraZq9Vlr1IlkrJ7gRcso7NhSk1SqQjlimDvezHJYcjEahjCEiC4GUTrtzYGJuQhnk7ApFv8C1l8ralA4Xl3mLfgbEqRoRiA0MFbbNeebyi3O+sHCcqMlLYHLfV3DsLF5MuDZlRn8APBSIzoSwSAYmARMBTEZAEwVNnzobciu9BVlYWFmw14GSy1uNHJy4FMpvFUYOnGO1NeRcAi7FQXjf3m/D4BVJHB2AxG4VToil5J6BLrqMoyGG7GgFJEFyNcA22r1gP6Hswf2dgKfN8DYrhtK58fc3o17EeRgxsiuaNA+Dn6yEUgTc9Gjwvu6LTJk425HIE9EYzjsbmYfm2Czi8bRGMKVG8g9zl/coO6hYCkiB4yXwr1oO0jGys2GPA4XPOiVwoz6+xutBZm/XLqn6z2YR7ro3EVX0aQ+PveaZ6izEfjGqQfgjVXSXy+fIQyNWZsGhTAlYtngNT6oFKZjrxTmx52ViTJk1w7tw5j3FwdmQmeGTJ9wmzlNoqERERyMzMRG5uriPNOVRHEgSHYHL/Skrkwsm4DCzcrSmJXLBxxu/uQQzMTNjnkhA8M7q9x0YDMNzRIvIieIjVw84S/+Z8fUzsAIT4V30cp9N0OJmqw/Ud6pXqJTXPgE/+ScBLA0Ld/wfmxhJm5Bjxwax/cHLbD4BJV66kISEhuPnmm9GpUyfs27cPf/31l0iZ7Yll2LBh4gKwHTt2CPGvuOIKXH311fjmm28wZcoUvPDCC6CztjcUOj0/+uijaNeunRhX2cLvv//+eyxevBgrVqxw2pAlQXAalLXXkHXWxBV7CrDvrGfnsifZmXh7GwzoUr/2QHVCz2ZDPmD2bCtC220N0S0UmNQBuDwcaKB2DBizBYjLKMDiY2mYsT0Jj/RtjDeGRoiHswpMWHAwFR9tO48Cown7HmzpWKOylk0EjCYL5qyJweq5U2AxZNtFKSgoCO+++65Qqvv370fnzp2xcOFCHD9+HPXq1QN/dxkZGWLXzSvAeaFXYGCg2JHyO35G/6aCggLxOcmvRqMR33Hnyue4yw0LCxP/ZVvc7bJfFq1WK+7tYBssVGrW/fKz+vXrC/n4DJ9n21deeSVGjBiB999/HykpKcXje+KJJ0S/v/zyi/isV69e6NOnD1atWoVp06bh+eefF3KwDu8BUW4YZduUgfeJBAcHCxLBMVIeZdx8jv/msxwDn+X4OHaOm3IphaRLrVaLz1iPMrIdWjKSk5PF8xx7gwYNxCP8nn0vWrQIUVG8BfVj0Q9lIXaUhf9mW/xDOYgbMYiMjMRHH31UXJdtp6amir7nzZuHBQsWYOnSpU77pUiC4DQoa6ch66yJp+LTReSC3uhTEhrgiFiOniM4Ws+6T0efsTpvMFtMmDKuI9pHesZlTXYhtlhgNmR7jHOlrXG03tYQOWYgxAe4Khx4th0wrIIrMoxmC37Ym4xZ+5Kx93w+SBbeuTICb1xRSBCWR6fjzt9PI99sQcsgX0RJguDIr7TcOgv+ScaibyeVe1nTddddh7Fjx+Lll1/GhQsXhNKi8nnooYfEzpRKcevWrfj999/x0ksvCRLQsGFDoUyphNq2bYvTp0+LHfr1118vlDHrsA0qp927d+POO+/EgAEDhHIkCfn1119x6623olu3bkKpUVF/9913+O+//3D//bz6u6tQrtz10hLwwQcfID09XSjTo0eP4u+//xY7ZipGKtO3337bLkG47LLLQKvCnDlzBEE4e/asUNTx8fGYMWOGkLlfv34IDw8X7Q4ePFiMmURo+vTpguw888wzQqHHxcUJTGbPno3Dhw9jwoQJiI6OFnVoyud4FZJw7733YuDAgUKJsz9ixDocF0nAhg0bhEWjadOmglzs2bNHkIAHHnhAkBPKwp3/xIkTxdEIsf7xxx/RunVrQQqI5c6dO5Gfn4+WLVti5syZQk5+T9mJHf9IglDtn5H3NaD4HvA2vN+2GvFfsqaQHNiL66tMrD/hcvSK56rkarbVNgCzyYR3Hu6EthGFOw9PLhajTlgRPLUoBEGRn1P2ZAvgra5Aw6KlpnzHOzQOns/DhMVnsCclvySCowxB+OVACu5dekYcH7UN9seO+5t7KjxuI7cj1z1TqTRr1gyvvPJKsdzXXHONUEw0X1Op8btXX31VkIikpCShjH766SesXr1aKPsvvvhCKOnLL78cvXv3xuTJk3HHHXcIpUtlSMX82muviWf/97//id0xLQCtWrXC1KlTRbuHDh0SZOKtt94SdRs3bgwq2U8++QQ//PCDUMq7du0SbVEeyjxy5EhRlwRDKWUtCFSm9+aOUgAAIABJREFUt99+u5CJz1Ixb9q0CZ999pkgAB07dsRtt92Gxx57TCh3EhYSAcrJ8ZGQfP7555g1axaWL18u5KOyp4WCGLz33nsCIypmkhzFF4BkiuRr7dq1GDRokCARtGKQGG3fvl2QHuK7bt06IV+HDh0Erm+88QZOnDiBL7/8UmDYvHlzgQEtJZs3bxZHPyR0GzduFOPo27evGAMxGT58uMCQJIMkjnMoCYLb/BzdRxDF9+DI6Uz8vleDAkMZhz5HyYIzFLy1FinrgVgJYkIHRa8hCGYTLEbPjWgoSxAEZ7QAnYOBJ1oDIyOBJhoLDp/Pw5wDqZh7MBWpBWWcqMoShP0pmLwhAXd2a4BH+zVCiNl5TlXu88usWUkcIQhUUjxWePHFF8XOk2X8+PFC6VBxs8ydO1fstll32bJlxTtTKk0qKSrwr776Cv379xfmbypeWgeoqLjLpQK+7777hPKkkl6zZo1QbLRC8Iyc1gpaHOhAyF05FSEL25o/f76wTjz11FM4deqU+DePRGhNqApBePLJJ8UOnTJT4bMdmvApM3fzY8aMEX1TqdMsT58MEgQqcT7HI4t77rlHfE5CREuGLX8NEgTiQblZh8cmxPPTTz8VRwxU+iQAbdq0ERYCEojXX38dX3/9tSAQtC78/PPPgrBw3CRb/JwY0iJCIkErCEmAMlfEkWSFf3gkQ9IjCULN/ubcvjfFepCRmY0Ve/U4EF+Y96Aaulk8by8xkp0Nf4UXQVkD6UjbJAjveokFgWP3ZF8EhSCQFHQNBo7nAsp9gVoffmZBN90F/Hv8PGKyDFBOZuv5+yBM7YPYXKNYkNZHDEeS8sSxQ8dGAWCASlpamtv/1txdQEcIAhU1rQPcyR84cEDshG+66SZhHqey5vk/d9vcOfP8XiEINNnT5E2CQKJAJU6FSKvAO++8gxtvvBE9evQQO3YqZf7hMQEVIHfKQ4YMKSYIPFagguRu/fHHHxeycP650eEfWikUgkCFx900FS6VOS0I1gq6IgsC+z958qSQl3JQQVMJ02JAEkOlz/YnTZokiIpCEEaNGiX6IWnh7r9FixbibJ9/iBF9Dmh5UIpCEDhu4sY6bJO+AhybYo3geCgDSRoJAq0x9P+glYVjY38kZ3yv01LCIxASBFpEEhISignCt99+K9rmM5w/Hr9IguDuv9BakE+xHpw+m475O7SlIhdqQRyndeltBIFRGRZ9tkdGNFgThBUDgCQd8PYJ4HwBoCcTtZihOhsHS1qh81iQnwo9Ggbgk+EthCPi5/tSLiII1guFSbAy0tOdtnbqakOOEARi89xzzwkfATrKUdFxd00rQnZ2tlCePG/nDpu7XprdeT5ORUszO/0TqFz5DHfdjIagomzUqJEgDjSx81mevdNKkJiYKJQflTF35Nwl00eBBIHWAdalMqQzIs/XebRA6wR33zExMaAiJGHhs6xLcz8JjlK4i+bxBa0T7Iu7b/oh0HJBpUqLARU935NPP/00Ro8eLZwfSRZ4tEIrCf0UaNonMTl48KAgBJSX8tA/4eGHHxZWEcpNx8Fx48YJYkViRJ8DFhIa+mOQKJD0kCDwGIZ/ODYSgw8//FAQACp+kgZaRog7rRQ8TqGlheMmNsSElhw6MpLE8Gjj/PnzgsS1b9+++OiGY6EMnANaLojXkiVLxPGGs4p0UnQWkjXcjnXkwtJdehxMCKhhCVzXnbcRBGFF4IU6HpgXwZogrBsEXNUYiM8DfooFfowDzuSZoUqIgyU1GYMjgzGhdzjGdG+IAH8fPLciBjOibBMEcotTqTqsPp6OsR0dDI1w3ZLz+JYdJQhU3lRw3JXTzM8/NLvTAZEe+nTE4/HDJZdcIkgElRlDIqmAqSD5OZ+hEqUpnM5xNHFzJ0xFTKXFOjSPU2HTGY8KmP9mGzSxU/Hy7yQoPI8nmaCSY388rmBbbJM77djYWKHkaVqnwiSBUQqJCf0TWFifRIFjOXPmjBgjlTz7o0MkFTXrsm/uxtknx8U2SY6UP5SdPhIcCx0KOU5aEKikWdgeiRTJinKJHHfwxJNyc6zEmGMnphw3yQ4/57McI4kCn2fflIGfsQ4tMjz6IIng8yQL9C9gXX7G4wQ+q4yP39GhkWOhpYRt0fmUnzmrSILgLCRrsB3ryIUTcRn4eVsgzJaqx6nXoOgOdeWNBIE7bbMhx+MiGmwRBE6i0QIk5APvHDFj1YGzeK2bGvf2bIRQjS+UiyzLIwg/70vGO5sTYTKZsfuBFg6tC1nJPgKOEgRnYcjdLJUVz+y9tVDR87iFUR08fqiLRRIED5x1xfcgPSMLi3cacey8c7ImWkPhaHRiVeFj+/YojVcSBFrjPTCiwR5BUObdZAFyDWaEqH2K5zNHb8I/Z7Lx+vqzOJCiu+iIYcnRNNy26JSIcpBhjlX9BZV+rqYJgnOklq24OwKSILj7DNmQrzhy4UwmlkRpkFPgeamIy4Pd4mVOispYOS6LMdejrAi9djVEvL4wckE5YrA3dyazBVvjsjFjxwX8E5uNNCWawQJ8cm1zvDCoqXhUCXOUBMF5Lx9JEJyHpWypBAFJEDxsNRT7HuTkgFkT98Za+R7YuhvZXugBx13RHcll61SUE6Gie6HZngNhDExTXBzFYO/Chsrc3+xGuPASJ5gNHuOwWBDYEE/uA5ZfAP4u8kGw9ZPh5UGvr43HV3uTkV+SZA4aFTBpUBO8OjQSWr9CIisJgvNfOpIgOB9T2SIgCYKHrQLlxsa4c+mYsy0AeXrfwhGUl8fA1ndl7fvl5SmoKEdCeSSkPCKiYF/meUEQxhclSnJy26WmuxZwKYxo4B0NnrHw6AilMwHLzwFdw4AuZa5NYLjislO5eG3NGRxLLUmOFK71xYi2oXhqYBP0jQwuHi/TLH/87zm8uzVJrFl5xOCcdeAIQaBDIB3v6LTH9wid4vhvOgjSO55OiExwJItEoPjVfPz48UqksJHA1SYCiu8BvXUXbNUjOskJkQu2dtfOHGRF5MJGX6UIQnmyVKHtSg3NRe1beKGOh2RXJEFQii2/kQIzMDHKiFlHs2A5fw7Iz8dVLYLxytAIXNYiGEHqIgIL4GBiLt75JxFrY7KQqS80M7QI8pV3MVRqUdqu7AhBYOgivfiZeIeRAUyYRE95hhAyvI+Jjhh+KItEQBIED1sD1pEL0TGZmLMtsNyESI5uUB2x4Nuz0DsCoa32K/oM1hYERzrxtDqMaBC+CO7Pza0Jgi2YSRCePgB8z7wxJhPuqJ+P7y4PRphfYaZliwVIzjVg5u4LmLYlEflFQ+ZhQ6jaB/d1qYe3Bod52gy6nbyOEASmByZBePbZZ0VuAcbpkyAwpp/5B5jngPkMZJEISILgYWugJHIhG3/uNuBggvMjF2xB4qJNtOjKXtu0ILynHDF42Dw5Kq7FlA8LfREcfaCW6lWKIACg4h9Yz4JHWqkwpL4R646nYTYvbUrKh5KAOdBXhTs618eEPo0wqGWwzKTohLmVBMEJIMomLkJA+iB4yKJQIheOx2Zi4W41cgpKTLceMgSHxawTBMFigoV5EdzcGaEigkCDwOZkYOJ+4CCvVChiPEG+QP3ks0g5lwQdYyFJHizAgIhATB/eAt2bBCFI7SOSzchUyw7/NOxWlASh+hjKFi5GQBIED1gV1lkTGbmwJy7QA6Suuoh1gSAQHbPR/SMaKiIIyiznm4D/nQR+iANO5hd9Gh8DpKXAT6VCq1B/PNIrHI/2b4IwbQm5lQSh6r8T6ycdIQi8PIjZBN98802RcY9+B0w1zPz/8ojBOfPgba1IguABM6pELpw6m4652wKhM3pX3oOyU1BXCALg/tkVHSUInEMaCo5kAXPjgLnxQNLpGDTMScMjfRrjvksbonPji51qJUFwzgvIEYJw7bXXivsCmJaXaYiZmpfkYNu2bZIgOGcavK4VSRDcfEqtIxd++deAk8mFNzay0AFMKWUt1eV958iQXdm2tey2LOxMKPSeF93mWB7e7h7RUBmCoIyToY9Hs4CfolLwTO8QRIZqitMvX0wG5RGDI7/Hiuo4QhB4nMW7DnjBEZ0Vt2zZgqioKJHL/5ZbbhE5/vlvWSQCxXpFhjm692JQfA8On8nEgp1a6E0lbm1llbg9pV4VZV9e20RMUezW9aw/L4/E2JKndDve76RYgg+zK+Z5RESDe/9S6rZ0jhCEuo2QHH1VEJAWhKqgVkPPFEcuZGZj+W499sdrPSAwrvrg8Ihh6kMdcUmL4Oo35gEtWIyMaNC7vcOiB0BZJ0WkIXHBxiT8/t2rsOgz6yQGctCuQUASBNfg6pRWFevBafoebNci14sjF0oBZjFjws0tcFWvRk7B0d0bISHyhIgGd8exrspnMFowa/kJrFvwPmDIqaswyHG7AAFJEFwAqjOatI5cWLqrAPvivTtyoTRBsKBNMzVeu7cjggP8nAGn27dhNuaL7IruHvbo9kDWQQHjLujw4cxVOH9wobjnQxaJgLMQkATBWUg6sR3rrIkn4jIwZ2sgjGZ3T6njRADYlMWEAV3C8PCNresGSRDZFXPcPnGSk2dZNldNBFKyDJj+2wmc2DoblpzYarYmH5cIlEZAEgQ3XBGK70FGZhYWbjfiWGLNZE10Nyhoem/bTIvr+jVBi8YB8PP1bpJkMRUU7gDdPHmSu62TuiiPwWDCkTPpWL3lDFKOLYElJ6YuwiDH7GIEJEFwMcBVab4kciELf+xRI7fAu/MelIuRCG+wiP95Nz1g4qR86BP/hY9ZJ44aJE+oyq+nbjxTeCtoBiw58YBR+h3UjVmv+VFKglDzmFegDy0wGo3Izs7Bst0F2BNbmFymMsqionBHWyGKjrZfUduKrFXJw+Bo2+IEoigHhKNyWz9TFs+ybblS9nLbtliQe2IekFYYmy79EdzsxynFkQjUMQQkQXCzCVesBzEJafhpa4DtyAUb1ysqN+fZGo6t78qrX/YWJXs5D6wVbUV5E4rlqqbsFcotmEAJCp6GiynvAvIOfAJ/H5NIZiOLREAiIBGoLQQkQagt5G30a501ceE2PQ6fuzg1rRuJW0OimEFzqkPHC9aVKrpTuirXVJbXftn+KnuTs1XbxvTjUIljBkHBaghn2Y0nISCOGHTJMKcfAnTJniS6lNWDEJAEwU0myzpy4XhsBmb/G+QmktWeGD4qE3p1CMEdwyLRonEgfH3qiLJkRIO46bH2sJc9uzcCRpMFB8/k4tcN5xGzdyHMKUyRXFlW6t5jlNLVPgKSINT+HAgJirMmZmRj8S4DDp2tm5ELynSQHNwxrBluHNgUav+6Z2pndkVYnBvTfnTtKTdZ7a4Ro8u17VzTsBu3mqszYe7f8diwfA5MaYckSXDjufJE0SRBcJNZU3wPjsVkYtFuNbJ1JVfilhWx0K+/sCiq01z0b246q7vxLNuW8m/r/qoKW9m2bI2Fo+vTMRjPjW7v9aGN9nAszK6Y61Qrwsw7FlR12jziuUcX3ekRcjpbyNQsAz6cvQmntv8IMFRWFomAkxCQBMFJQFanGeusict3F2BnbKBQ/NbKszzFb13PWg7rZ2y15ajit65n3b71vr5sW462bVt2E14c0wb9OzWoDqwe/6zZmCfyIjgrmkESBI9fEjYHYDJZMGdNLFbOnQIYsrxzkHJUtYKAJAi1AnvpTmk90Ol0OHM2HT9sDUS+oe6Z1EsjYsL74zuifWTduKzJ7hJ0cnZFSRDc4MfuIhEWbErGopmT5GVNLsK3rjYrCUItz7x15MK8zQYcT9IKiSw2zglURecKtr5zZBjlPa98Z6/vitov7/nKtq2CCdMe7oS2EdJR02LSiTsanFEkQXAGiu7Zhrzu2T3nxdOlkgShlmewOGvi6Uz8sl0Lg0llkxxUJKYzFXTZvmq6bZXFhGkTJEEQZI2+CMY8qJzgoe5uBMFP7SsygBkLjBUtb4e+r6s+CARHEgSHloisVEkEJEGoJGDOrG4dufDnbgP2xWuKvQ9pJVAUs73zfFuh9/ysIkdFxQLB9m07CZYOmFJSBihtE4PyHCFtyV7WH8IaR37HMSptCguCJAjFEDGiweKEmx7diSD4+vtg8D19ENokFKunb4LJYKr2T0sSBB4xZFQbR9mAREBBQBKEWlwLivXg1Fne2KhBToH9yAV7YpaX5dAZQys3c2E1O7DXNgnCB5IglBAEEdHAvAjVi09xJ4JA68Gtr1+L8Jb1MfuxhTAWSIJQnZ+TtCBUBz35rF39cvz4cZldoxbWh3XkwtJdBdgdG1gLUrhnl5IgXDwvvMiJvgjVIQmuIghMs60qCrvhulZk5N+FtcmK2Fh/Zu97Hx9V4V0b1iYrcd5SiAv7spgLr/CybltaEKQFwT3faJ4rlbQg1MLcWWdNPBmXgR+2BEJvqt7usBaG4bIuJUGwAa3FArMxu1o5LqpDEKiIA0I1yMvUWVk2LAhpGIRet3RFk7YNoc834sTWMzj2z3/w8/dF75HdEBoejJ2L9iMnNQ/qQH/0urkrghsEYvOPu9Dzxi4IaRSMf2btgMloRmijYPQZ1U1YFfKzdDi07gRi9p4VJIC/mXb9W6Lz0PYIrKdFflYBTu+Jx7GN/4nvWCRBkATBZS+lOtqwJAi1MPGK70FmZhbmbzXiaGLdzppYdgokQbC9KKsb0WCPIGhDNAgMq/jej2ueHIzV0/9BdnLh9cJU3GOn34pGrRsgJzUX/lp/hDYKwtqvt2Dv0sNoP7AVbnt7OHYu2I8tP+9Gu4GtcOtr12LlJxtwclsMxrx3I8LbNMDX98yDv8YP42aOESREl10Af62faG/x22twcnsMOl7eBrdNGY68DB3yMvMREKIF5Y5aegjrvt0mZJEEwX0JQkBAgLil1mAwiEvIeLzqDkWtVgtZKJssFyMgCUItrIqSyIUs/LZLjTy9T7GPelXtCLbuJlKGVt53jgy/ptuWBMEOQahmRIM9gtC0QyMMeaAfNIH+5S4HroPTu+Ox/beoYnN/QIgGQfUDkXo2Qyjtm1+9GhGdG+OLMT+L6IQh9/dFj+Gd8fcX/+LKRy7DuegkrPx4I3z9fTHm3RGFBGHsXAy6pw/63d4D67/ZhqMbTqJhy/q46eUr4afxw3cP/YqbJ12NlpdG4LdJK3DhdCqC6gWgxaUROLUjFoaiKAhJEComCP7+/rjssstw5swZxMfHi/lu27YtmjZtil27dgllSaXJvCwsrM8/eXl5jrwq7NZ55JFHcOjQIRw7dgzDhw/H8uXLkZubW6k2SSyCgoKQk5NTbDWqVANlKmu1Wjz88MNITk7GggXenWW0qjhJglBV5Kr4XLH1ICsbf+7SY3es1mYAW1UuG3RUJBs3Ljv6qEP1qiu7j3RStItzdbIrKgTBx/fioElNoBo+vhcn6DKbyuz0LIAupySdL5+J6NQYQQ0CRRhKj+s6ocOg1vj8jp/EsYImSI2Rk69DZJcmwjKwaPIqJJ9OE4q/mCDcMxej3roejVo1wPwXlyEjMQsqHxVuefUaXHJ5G3xz7y+44sF+6HbNJYjechpJJ1NEnYQj55GdynTUhStaEoSKCUJISAhef/11rFu3Tvxhufnmm9GnTx98+OGHCA8Px4QJE/Dee++hoKAAN9xwA2666SY8+eSTDv327VWaPHkydu7cKUjI/fffjx9//BHZ2dmVarNbt254+eWX8eyzzyItLa1Sz9qqHBgYKMYcGxuLTz75pNrteWMDkiDU8Kwq1oMzCen44V8tcvSVj1wQIivbelvavqpmCAWL8q4udnbbNsYiCYL9RSmu+a3iTY8kCCSoLbo3w40vXQVtkBp6XfkXQh1eewLb5kfZDEOkL8FdH9yE4PAgofy5bOgfQEvCF2PmIDulUHkPGNMTw8YPQPS/p7Hs/XUg6ShNEOZh9NThqB8ZhvkvLENmUrZ47qaXr0LnYe3w3bhfhY/C8GeHon5EGBgBQX8G7iiXfbAe/207I/IpSILgGEGgsl67dq34w3Lrrbeid+/emD59OkaNGiV2+AsXLkRiYiKuueYaDBw4EF9//TW2bNmCiIgIhIaGonHjxuAOfM+ePcIaYV0aNGiAvn37olGjRjhy5Aj2798PhSBs3rwZ/fv3F2SB78JOnTqhe/fuSE9Px969e8VuvmvXrvD19RVWDVoMtm/fLqwGd9xxB8aOHSvIBds5f/48WrVqhZiYmFJHBGy/Z8+e0Gg0OHjwILZt24YrrrgCJEcrV65E586dQbKxePFiXHnllcjIyMCOHTuEvIMGDRJjvHDhgniOfVxyySW4/PLLhSVl06ZNwgpSV4okCDU409aRCwu36bH/bNG5b01s6a0VsTPH7ALZBUF4RCZKsjdNZqMOKkvlsysqFgQq33YDWyKicxOc3hlX7mqgYk6JTYNBV/qMlmu5/+hLccWD/bH2yy2IO3hOkI/L7u6N3jd3LSYI9SNCMWbajTDqjAgOD8ayaetwZk98aYIwdi5uef1aNLukEX6btBypcRnw8fPByNevRbsBLYUFISctD4xuoKVCHaRGWOMQXPnwQPj4qfDduN+kD8LmFCz4xnGCkJKSIpQ3S69evYTymzFjhtjdUxmuXr0aCQkJGDp0qPh+/vz5WLVqlVDS1113nVCUYWFhaN68OZ566inhW8BC0vDMM88ISwTb5/e0RrzxxhuCFJAETJs2Da+++qo42hg/fjzWr18vlDCfffvtt/HYY4/h6quvFkqbJIH+C3z+7rvvFgTmjz/+wN9//y2OKCjz448/XmxR4NqeM2eOsAoEBwcLAjJp0iT06NEDDz74ID7//HPccsstyMzMxJQpU/DZZ5+Joxa2Q+sELSk8CuFzJAdffvklnn/+eTE2EgMSh9mzZzvzDerWbUmCUEPTYx25cDw2A99tDioM5apOUTHTXkkDxdFk1W2XTRYp/ovad0bbRe3ba9sZBKG6fhcVTYsr26+wbd7RUAUrQlkfBBWPGkxVm1Cu50Fj++Cyu3vh98mrEbMvQdw8ef3EK9B3VPdignD/jFHQhGgw/6VlGPnGtfBT+2HuxMXwKeOD0Pe2Hhj6UH9smr1TRD1EdGqCUW9eJ4jJ9+N+wxUP9YfZbMGO36KEtaJeszCMfme4OIqYPWGh+K+0IDhOEFq3bi2UJEv9+vWFMv/ggw/QrFkzvPjii3jhhReEH8Lo0aMxZswY8YdzTuVNhf3VV18J5T116lTxXHR0tGiLxIDmehIAKlhaAugAqFgQrAkCz//5Hf0RWrZsKdq+7777MG7cOPEclTOtAVTkd955J9q3b4/3338f9957r1DUrENrRWpqaimnRx4d0BrQrl07cZxC5c9+3333XWFx0Ov1Qh4qfBIGEoR58+YJK8mvv/6KuXPn4umnn8aIESPw22+/iWMWk8kkyATbUchQRe8Ib/heEoQamkXrrImLdhhw4GzpyIWy5/bWlvzyXuGO1LPlE+Doxt+Res6W3ZogVLVtK45jN0mxp+FivVSZXVFlKf94oOzSrk6Yo62fCY8ERk+9AfRfSIlLF7v5BpH1EBIehK/umYeuV3cQ2RLXfPYPjqw/gSbtw3H71BsQ/e8pbPlpD257+3rhpEgLAf0i6KvQsnsEDAUGqAP8kZmUg1WfbkRKbDqueuQydLisNeCjQn5GPgLCAqDP/z971wEeVdG1363pCb13BKVbAGkW/PztDRCVDxs2LJ+9oSj2BqKiiCDSRBQUsUvvIKD0HkpIIJQA6clusu3+zzvJDcu6yd7d7CabZOZ50CQ7c+6ZM7P3vHPa2LDo09U4SCuITsYg+GNB8OZioKKn0n/++efFqVkFCFTOtBywUYnzXTZ58mShhN966y2hWOlGYGvYsKHw63O8e5yAN4DA57B/amqqGEslPHr0aAwbNkxYB6ZPn45u3boJegQFVO60PgwdOlS4Irw1uj8IUOhOIACiZWLcuHHCSkErBN0lBC78mS4UFSDQ3cB+BBHsSx7ozhg7dqyYJ10RtIZQbmPGjKkgrVH5j5EAoYLWQI092J2cjdkbzMgpCDD2oIL4rczHBMOCUJn8V8izXbyjgT5+7U8LNkAQp88mCWjQti6i4yNFwKDNakdUQqSoX9CwXT2YIkxI2ZoqKiXSbcCAxqj4SCRvTgWzJxjEePDvw1BcihjX5NwGojZCYV4h0pLSkXGkqHQwAUO9lrVRq3E8zNFmYUUgKDmdfCZYTVoQtFsQSgMIVNg08z/66KMic2HgwIHiRE9LAgEDAQJ9+FT4VNijRo0SJn66LNjq1q0rTtqfffYZtmzZIuILCB68uRiogOmmICjg+5HKnUqdz/AGEJo3by76Dh8+HElJScIlwViDzZs3C6sAGy0OBBSTJk0S/NISQBBAEEJLxM6dO9GjRw9hKeA/FSB8/fXX4ufExEThTqGrhW4GAhJaOaxWK5iJwTkzRqOmNAkQKmCl1dgDBtr8/HcB1h+SVRPLErsECNo2JS9xgsuuubpiKACCNk4rppcECL4BAv3yNP8vW7ZMnJTZmKXAOAOevKmkacZnv7lz5wpFzBiCnJwcjBgxQsQfDBo0SIAHvteYlcD+amMsA7MgaJ7n+45KmgCD/v1//vlHgAa6JQgsatWqJWhT+dJsT5DAeAa6Hkifpn4CDPbhiZ5BqbQqEAyoypyuDvanm0EFKIwRYHCjapWgq+Lyyy8X7hPGIdAqQBcLFT5Bw+HDhwWoYXYEgxmNRqOwZjDOYeHChQIM0ZXB+VJmBCBq8a6K2dmV9xQJECpA9tz4/KIkH83E5NVRsASauVABvIbDIyRA0LYKzGiAH7EIEiBok2tV7KX1Lgb67du1ayd8+KoLgCZ0KuuDBw+Kqbdu3VrEBNBHn5aWJsz8BAxU7owR4Mmdyp6Kmn0IBNwbYxQ6duwolPSBAwdw7NgxET/AbAFaCM4991xxUufJnEqbsQJUvsyGYF8+m4CBP9NVQFq0EvBv7Nu0aVMRM8Hn0prBn9W4gOZagUuhAAAgAElEQVR16qJrzx6IjotDr9ZtsGrPbuw7cAD333Qzflv3F/YmJuKu667H3pNpSE5KwqCrrsbPK5ajICcXF3TsgMOZmbi4WzeY9Hp8NGkSenfpip59emNvcjI6NmuOHfv3YeW6dejarh02bN9eFbeKXzxLgOCXuPzvrMYeEIF/s8qGnSe8V6wrzdfuLf6gtMzG0mIVPPv7iiuobF4MMotB80ZjdUWdS1tGgwQImsVa5TpqBQjlnZh7DEK4VEN0n1MrhwPP9ukNW8dOiJ4wHtbrboC+eXNETvkS2QMGIaZWbZi/no6TQ/6LWnYHIn+ehyP3DEP9o0cRtWIZDj70MJpu3ozoLZuwb/gjaLZsKWIPJeHAvfeh0Z+/Iy49A0lD74Tux7l4Le1kecUZ9uMlQAjxEqmxB7sOZWPK6ki4lOKLaIqfW3IbY2l8eNY7cOsnFLmXLAbPv5Ua5FhGuHwJiPCgHwzanII33lXael1RmmPbJkVmQtnKkIAf1RUlQKi+O+n7lafw/cQRIb/umTUC2Hi6D9c2MCcL7XOyMK5xcwzOy0GD7Cx82aQZ7szPgykzAzObNMcD1jxk5uTglwaN8T9rHvZYLFhZpx6eLbBgRaEN2+MT8ExBPn52AYcjo/FoQT5mG03IMRhxnzUf06NisCc2LlxFEDS+JEAImij/Tcg9c2He33ZsOhxxpsCRe3dvR3at2WeBmAO00i7R5KUIqbQ0AK30S+Fdp3PilTvb4vxzaoVwdaoPaWY0aLnpUQKE6rPm7jNh+ufMxan4bdooKPac6jlJP2YVUXzPQ6FejyinEw6dDnaWaXY4UGAwwKnTIc7hQL7BAJdOhwS7HblGo/i5ts2GbJPpXz/XstvF3/lqi2f/4p/9YKtKdpUAIYTLploPeGPjjL8ikBto5kJ5axeXNUdfAKO88gmAdx1cuKZnHTxwfavyPr1GjFcUZ3EsQtkpDQW52lwRVVVokXHmqsp6ufjOK3Diw683YMfSCQDBomxSAkGSgAQIQRKkJxn3qok//V2IDTJzwS9JRxqdePaOtujWNgEGvR+5fH49pfp09jejofrMvGbPxO5QsGTTacz4+hvY09ae7XOs2aKRsw+CBCRACIIQvZFQMxcOHMnE5FXRKHD8+yIcjivtAO9vYKE3HrTSVvnQ6hlQn1UWfW/hDf7Q53VCdeP0uLpHPVzStS7q1YqA3p+k/xCta9iSVRQojtyS/RS2fErGgiIBp0tBSlohlmzOwKrl82E9vBxwSutBUIQriZRIQAKEEGwG98yFGasc2H387KqJIXhktSXJgEWmPRIbeIdY1Xbq/k+MUZ6KvNfef8FVvRGKywFX/mE4T6wA8sq+T6PqzU5yHC4SkAAhBCuhxh7sSMrGrPURsNikaguBmCVJDwm48lLg3D8VRleeKOSiXoMsBSUlICUgJRCIBCRACERqZYxRrQdZ2bn4+W8b/k6JLP+lTEHmUZKrphJQnLAf/A76zE3iIhsJEKrpOstpSQlUkAQkQAiyoFXrwSFWTVx1JnMhFC9rghG1BZt+KGmTZ5W+Fr4Zj+BPK+FdxxiP4AY4KuSlmB0tvPvDt79y8UbbZT0BZ+JkGE0m6HX6M0Eu/jIi+4e3BBhzQndScbnt8GZWcldVJSABQhBXzj1z4Yd1hfgnpahqoqpIPBWXuxL22s8Lb560KpR28VzclaQnQPGck/sUPOuX++LdoFPQtJ4JXdvGoXYsFV5wlX0Qlz6sSIm0R5cjyNAorKZY45lxulw4fuIUtmzbgazk1YD1eI2XiRRA8CUgAUKQZErFyH+8cyHxcBYmrYiGw+Wb+L+UZPEQb3/3PLGWpYzdFbcWIBIs2irQKcsCoY1vBd1aReHhW1qjbnwEjAYJDnzvpuIeiguKI08CBM0Cq3odacRiiuPx9EKMnrkdJ7bOAKwnqt5EJMdhLQEJEIK0PCVVE7NzMWetHVtTa2bRlmCIky6FpnUNeOeBjoiPMQWDZI2joTgKoFMqpzCSw6lgc7INk5fnoXtrMwZfHIM6sTJQN1Sb8OBxK94d/xOyEn+RWSyhEnINpSsBQpAWnrEHvN1sZ1IWvl1vRk6BfCEGKlq9zoX7r22K63o1CpSEHOdyQnHki/TQimoMidl33I4vl+dh8XYLsiwudG1pxuCe0birXxz08isRkqUotLswcd5urJo3BnCcfbNiSB4oidYYCUiAEISlVq0Hubm5+GlDAf5K8n5jYxAeVSNIGHQuvPtge7RvVv0vQwnlglZ0dcWZq/Pw5k/ZyMyzo1XDCLRvZMLSnVY8cFk03rytjqyIGaLFprthzvKTmPslL2vKDtFTJNmaKAEJEIKw6mrmQsrRDExcEYU8WfegXFIlQBg9/Dy0kbc5lkuOiuIqvqOhXGTKHMyKfqv2FuKT+TnYcKAA9eMNaFjLiFyrC6npdrSsa8IVnSMxsEcMurYwyViSEC1FRV33HCL2JdkwlYAECOVcGPeqid+ssmH7schyUpTDJUAI3h4IdSzC6VwXRszOwoE0O+IjgeNZLhzPsqNWjBFdmpuw97gDtaMU5BcCD/0nAfdfLq/wDt7qnqEkAUIopCppSoBQjj2gZi4UFhZi96EsYT3wL2O/HA+vxkMlQAji4iqMRbDA31oSWjk4lunE1e+fRPfWRszfZoXJAJzfMhLnNDJi6a5CZOc70POcCOw5Zsct3WPx9uAEraRlPz8kIAGCH8KSXTVLQAIEzaL6d8eSzIWsXMzdYMOmFHnnQjnEWTJUAoRgSPEMDYVXACv2kKQ9nsp14bFpGagfp2DvMScizXocSbcjymwQ7gZLoQu1ooBCB3D1+TF44qrY4E5OUhMSkABBboRQSEAChHJIVY09SEzJwtd/mZHtlrkQSAU/UYCouHkbr34eCG2SLWu8r2f7ElNZ4/2lLQGCL2n797konGQvup8h2O14lhM3jz2FPu2MWLSjEBl5TjStbUKL+gbsTrUh2+LCRa3N2HPMgf/2jZMWhGAvQDE9CRBCJNgaTlYChAA3gHvVxJ//LvSZueBLSfr63BebwVTQns+qaNoSIPhabf8/D1VGw6kcF+6eeBqN4nRYf7AQLeub0b2VAVNWWkTtg/NbRiAhCrA7gU7NI/HUNdKC4P/q+R6hBSDExcXBaDSWEMvPzxep2ZXVWrdujXbt2uHEiRPYvn17UNlo1KgRYmJicOzYMZx//vmgG3jr1q3goU427RKQAEG7rM7qyY3GqokHj2Ri0qpIWN0zF9SDmntAQll/KzreF7XifrQSlChmb3Tcx6jjNPZTLRD/KpnsfsAsi3cf/Xzy7kMuRj2zGDrILIYA96bXYSGqrngi24l7J6ajazMDVu+z4Xi2glu7m7E/zYUcqwsH0+xo3cCIlNMO3H95Al4dEB/MWUlaGi0IvLzrxRdfBBWn2qZNm4YtW7ZUigwJVr788ktER0dj9+7deOmll4LGBy1lr7/+Os477zyMHj1azDs9PR1PPfWUAAqyaZeABAjaZVXS0z1zYfoKG3YdLzv2wPMOggAeWeqQ0ko1B+sZoebdW9llCRCCtXpn01GcBdC5gntipIvh2g/ScF5jA1bsKUDv9lFIiDZgwdZ8UWr8knOjYDQAcZE6tKpvxqiBEiCEYnV9WRBMJhOmT5+OhQsX4qeffhIsWK1WOByOULDjk2aHDh3wxRdf4PPPP8fPP/8Mu93uc4w/HS688EI0a9YM//zzD8aNGycBgj/Cc+srAUIAglNjD3YmZWPGWjOs9pJj/xlLQAB0fQ7hY0KVJhFGtCVA8LkTAusQgowGlwJsTLJh3T4rlu8tRPJJB07mONCsjhH14gzYf8IOWnX7nhsl4g9a1Dtj4g5sEnKUNwloBQi//vor5syZI0jQ3XDppZfipptuEteD5+Xl4euvv8aePXvw8ccfi99pceDfGjdujBYtWqBp06bi1D9//nx07doVzZs3F/0nTJgAWgUef/xx8X+e1N988020adMGN9xwA8aPHy/osbVq1QqjRo0Sn2VnZ+O7777D3r17ce+99wqXA/sRyMycORO33HILBg4ciFOnTiEhIUGMI90jR46I52dlZWHp0qW49tprERkZiblz52LWrFnCWtC5c2d89NFHeO2115CRkYGpU6fiiSeeEO4M8mOxWORm8iEBCRD83CKq9SArOxfzNhTi7+QIuN267Cc12d2bBCRACN2+CFUswrFMB3q8ehxNaxvRIN6AQ6fsSM91oksLM566NgGXnReB2EhZazlUK6sVIFCh7t+/X7DB0/UjjzyCb775BklJSbjrrruEEh4xYoQABadPn8aUKVOQnJyMQYMGoV+/fgI49OnTRyh9fpaZmSncA1TIBBDDhg3DK6+8ArPZLFwH3bp1w+233463335bgAG22NhYDBgwAPfffz8WLFiAH374Ac8//zzi4+MF0Ljiiitw2WWX4dVXXxVuAvJ14MABLF68WLhEJk+eLPhdsWIFhgwZAlpHfvzxR8FXw4YNMXjwYEGvS5cueOONN8R89Hq9mA8BDX/fuXNnyZXzoVqT6kBXAgQ/V1G1HiSlZmLySjNyCw1+UpDdfUlAAgRfEgr881BlNJzIcuLR6Rk4keXA/uM21Isz4n9XxeGRK3kHQ/CzJwKXQPUcqRUgUEnyxM929OhRcUKnombr3bu3OGE/99xzwixPSwOVN5XrQw89JAIaeQqnAn/yySdx8803C2vC77//Lk7pJ0+exNixY7Fv3z589dVXwipQWlAgT/98BgHHn3/+iUWLFglLApX/JZdcIkAHn00XJwEC4wj+/vtvYWFgn5dfflnQHzNmDNLS0gSYGDlyJPr374+hQ4fi0UcfPQsgNGjQQMzxs88+E2BCNm0SkABBm5xEL/fMhbnrCrAhWd654If4NHeVAEGzqALqKOoiuGxBTXukFW3ePxbMWpOHto1NuKdfDDo2M0Nig4CWyO9BWgGCu4uhV69eeOyxx4Rp3+l04pprrhHK+OmnnxYn+dmzZwuTvSdAoBKmxYAAgWZ9KngChNWrVwu3AenQ5E+lTisCx3sCBXeAQHeF+o8Ag2NJn2CEmQgqT8xCUAECAURiYiI++OADAUxUgEDw4g0gkE+6FOhWIe3U1FS/ZVwTB0iAoHHV1aqJzFzYd5hVEyNhd8qTkUbx+dVNAgS/xOV/5xBlNDAeISvfhdhIHcxG+d3wf2ECHxEIQGAswFtvvYVNmzaJFEAq4sOHDwt3AK0H/gIExh7wPUlLA0EG6RAc0O3wwgsvCHeE2twBAkELrQlU/hs3bkTbtm1Rv359Me7qq68OCkCga2XNmjWCJt0an3zyicxo0LDdJEDQICTVekCUzdiDb9fYsC3VrHGk7OavBCRA8Fdi/vcP9R0N/nMkR5RHAr4AAk/OBAPLly8X5nw2mu8ZpEg/PmMG6BpgVgFvpaXpnoqUAYBU8gwUZKbBL7/8gu7du+POO+8UJ3GOo7WB4wgQ7r77bhHwyFgBBgIyLoBKmW4LFSBwTPv27QWI+OOPP8Rz1NgAWgwYkLhkyRJhmaA1Yfjw4Xj22WeFxaBnz54iboLBhwyEJO/sT7cBgy3pJvng/ffR/4orRBAjMzcYP8G+TKtkEKVep8PHn3wiAh1lK1sCEiBo3CHumQuz1puQ61Y1sSwSntULy1sQyf1Z3iojlrfaokrfG5+h5N2dtkmvyDoIGvdlwN1cvKMhH76KK9IqkFfgEpkIbFFmHSJMOuQX8AImF+rGGWDQA/mFCuwORfxMCwILevDzCKMOpmJrAm945Hj2jTTrBE2Xooi/5RUowuoQaZKWh0DW1BdAIE0qetUS6v4MAgUG+rkXTfLs65lO7e42ICDg4YmNQIS/kxafxXH83T2dsnVkFK6/5BL8k34ag2JjcDqhNtYeP4bbzCaktWiJf1JTcau9EJtq1cURqwV3WPOxJL4WchQFt2Zl4PeE2lDMZlyTmY6fzZFIqFULfdNPYa4LaN20KbqcTMMcixUXNmuGVjnZ+C4zC5c3bYK6hYWYeew4+jRqiPnr1uNoQUEgoq5RYyRA0LDcJXUPcnPx0/oC/JV05sZGd8V21pfOrfK9e66/qCvgpaRyacrXG333UsuetIW1w4O+P7TFycIP3kNB26hXMEYWStKwM8vXRUtGA9MUr/vgBFxgBoIOz10fjwtaGfG/GdnIzHOhZ1sTPru7NoZPzcDW5EKhhLq2MGPs0Fp4dlYmWtUzYuydtbF0pwWv/pCNNwcn4IkZmXjsqgQknrDhZLYLQ/tEY+ScLIwfVgeXnidvQw1kVbUAhEDohmKM2eXC02nH0PGmAZi/ZBG65uSgydXX4od1f6F/oRV1e/bCtO07MMCgQ0KrVvgsKRnD4mMRExWFj9NO4eEmjRCZm4PJ2Xm499z2MB7cj+9sDtzRoweU9Wvxh86Im6/4DzKXLcImlw5X3TIAKb/9jFS7E5fedQ82ff8tJsXXQoFeBpj7Wl8JEHxJCBABNjRRpRzLwBfLzmQuuNe2/1dVwrPRgvjtrAqD3p7rVuMglLSp/8+qpliEKry34r6lAaGSQUHkXQIEDZsyCF0UxVV8R0PpxPYcs+Hyt47j7cG1UTtGj87NzLhj/Gmc39KEoX1i8NCUdLw6sDa+W5ePGDMwuGc0npyZiVdvqYU/t1mx/4QNn95dF2Pn5+Bklh0f/rcuHpiSjqevq4XEY4XYlmJHQpQeV3aJxIs3ypseA13WqgQQhKXB5cIV6aewsm590DjVOzMd62rXBcFDp9wcbKpVG7XtNjQtsGJ7fC00s1oQ7XQiMTYO7fNyUajX43B0DLrmZOGEORInIyJwcVYG9sbEIcdkwmXpp7ApoTbyjEZcc+oEVtWpD6vBgFtOHMWC+o2Q71ZyOlCZ14RxEiD4WGX3qonfri7A5lS3E46HUvRaGlnrLvK0rFYQbQFcVKtGIEWYvFmEy8m7AAgPy1LLWrdOefr5ikUgQLj0jWPofk6scBcM7x+N+746iaeuro0Xb4xH1xHHcM+lMViwrQDHMuxo08CMHak2TLqvLj6anwub3YFMi4KGCQakZjjw4ZA6ZwGEX/7JQ9uGZsx5sgFa1JVFlAJdy6oGEAKdpxxXsRKQAKEMeav+OloP9iRnYvxSD/NnqKsPlnWyL88+8XYvRHnoeY4tp1wIEN578Fy0bx4XTK4kLa9WKxcUcdOjd/EQIPR/6zgm3FcP9WINaNvQiL5vHsN/e8fhhRvicdErx/Hs9fH4aaMVjB1JiNbjZI6C7x+vh/9+no6+7UzYd9KJO3tH49nvsvDhHbXOAgjbU+wodLhwV79YPHNdgs+YCLmI/5YAU0znrEjD3C9fgmIrKkYkm5RAMCQgAYIPgMDgm8ysXPywrhAbUwLMXCinwvS50KGkXwm0DToF913XFDf0buxz6rJD+SXAugg6xXstfF62dNeEU/jp6QZoWKvohD91ZR6+XVt010L9OD3euLUWPvgtB40SDLi1ZxQenU4XQzzmbSxAv/ZG3HtpHI5mODB8ahZeujEWL32fjfsuj0NSmg1pOQqu6xaJz5fk4a1b49G3vYxB8HdFC+0ufPHjLqz+aQzgyPd3uOwvJVCqBCRAKGNzqLEHe5KzMfMvA7KtMqilIr5LOp2CJnWMeO+hTkiIMVXEI2v0MxSXUygWb1YEm0NBaoYTLeoaYDQUmRmcLgWH052w2BQ0iNOLOxeOZjphMkD8zJsb46P0KLQriI7QidgFu1PB0UyXABRp2U7xN9ImyKgXq8fxbBeizRBlmmXzTwIHjlnx7vh5yN73K6BUzuVL/nEse1cVCUiAUMpKqVUTeXHIT+stWHNQVk2syE2t1yno2joaD93UGg1qRcBklHX8Qyl/LRkNoXy+pO2fBOhWoOUg9VQhPvp2K9K2zQSsaf4Rkb2lBHxIQAKEUgSkWg8OHsnAxBURsNikgqrobxNdDU3qmtG5dSwSYk2iwIlsIZIAMxpcdqa3yFYFJOB0upCWdhI7dmxH9uG1EhxUgTWriixKgOBl1dwzF2asKMSOYxFVcW2rDc8lOksqr5CuqevESuhPrYTBYAzqPQ0hZbqmElcUiIu3nAUA/y+blEAIJCABghehnqmamIWpq80odEjNFIK9J0mGmQSU/FS4DkyFSWFWg06ChDBbH8mOlEBFS0ACBA+Jq9aDzOxczFvPGxvNgHIGIGitUljWQmqpPuhZyMi9uqGvTaKVfiClk8OBNucfSEnpcOA9lDIvt1xcDriS58KQtUmUx3Uv1uVrz8nPpQSkBKqfBCRA8FhT1XqQlJqJL1eYkFMoYw8qc9szDsFkUKBHUV132aQEpAQAZp648pLhPL4UyEuRIpESCIkEJEBwE6uaucDbzH5cb8VfB4tzsr3VAvBVbKj4c1FemSHHxU1ULXT7vSQozL2Kobse9FUCuSzafKYn7/7QZv1lz6qInrx78hckuRALNKplxLW9GqBv5zqomxABvWZ84G3SgZSJ9PadK20zhIp+MAtRaJMLqyvCZZOALCSv3OAQZarpkZOFWL4tE8uWLILl8BLAYQkOcUlFSkDVV4mJicF6s1VpobpXTdyXkoEJyyNgU2MPgvmO9pSSL4VaXqmGmvcQ7Z6YSOCloe3QqVUcDNqRQXmlJccLP4UCxZEXUEJDgaLDNrsZhTo9OhgKUV9ffA2klGxIJMD6Eiu2pGPK9G9gP7GWpoWQPEcSrZkSkBaE4nVXYw+ys3Mxc1UBtqX6WTWxiipirxaMYH4XApALayDc2Kc+7r+uZTA5kbT8kIDiKIROsfkxAiA4mFsYjW0FJmF5ijECj0bnooFBRtn7JUg/O+cXOPHhzL+xfcnngMPq5+jgdne/+jm4lCW1ypCABAjFUj+TuVBUNTG3QMYeVMaG5DN5F8Nr97RDt3Pk7X6VtQZwOcHiSf6EfRxxGjElLwb5rjO+oE4RDtwTHZg1otLmXsUe7HIp+GZxKn6dNgqKPadM7o1GI3r27IkmTZqIW2pPnz6NDRs2iNtq/W10l0ZFRcFqtQq3aYMGDXDDDTfgjz/+QFpa+BZtio2Nhd1uD2jOWmQUHx+PgoIC2Gz+AWwttCu6jwQIwqKqgHcu5OTkYt4Gxh5E0MoqWyVJgJf+jHlE3uZYSeIveSzvaGDxJK3BoalOI77yAAgJBgXPxuUgSie/UKFcz+9XnsL3E0dAsWWV+Rgqx5EjR0Kv14OxVueffz42b96Md99912/26tSpg2eeeQZffvklDh8+jMaNG+OBBx7AlClTcOzYMb/pVdSA8ePHizlPnTo16I+MiYkR858zZw5++umnoNOvaIISIAACSRNBpxzLwIRlJuQWyHrwFb0R3Z/HrAV53XNlrkDRsxX6s+3e72hQuVMDbgkirIoOvxZEY7vNBBtd4TogUg/cHpWPNkYHeKuGUacEFNtQ+dIIbw60XvccFxeHV199FYsXLxb/HnvsMVx99dW47bbbBGjo3Lkz2rZti6ysLKFET548ibp166J9+/b4559/BFikBWL79u3o0aMHHnzwQSxZsgTbtm1DYmIiLrnkEqxevRpt2rQBwQgtDBy/fv16pKSkwGQyoXv37uIZLGNP6wP5IF8JCQmij9qio6Pxn//8R1g5unbtihUrViAjIwN9+/YVFpBDhw5h7dq1yMnJwQUXXIALL7xQ0Nm1axfWrFkjTvGtWrVC7969BW3y0Lx5cwwfPlw8h89dsGCB4IGNfFIWfB75++2334RuuPjii9G0aVMBgkiDPFx66aWoV68e5s6dixYtWohnbNy4UfDwyCOPCFmtW7cOv/76q5AdZUbrzaZNm4TsunTpgo4dOyIzMxMEWrNmzQrLDVbjAYJ71cTv1lixMUXbbXLMZy+tNkFZn2nZBZVFWwtvvvoEg3cJEHxJueI+Z0aDt5se+eLcuXMntmzZAp6a+vfvL16weS49klxGnHLokQc9dttMIFZoZHQiUqegkcGJXqZCxEiLQlAX0V+AQGW+e/du3HHHHcJ6+uKLL4rTf69evbB8+XKhkGkiHzNmjFD2t99+O958800BEN566y3wFH7eeefh7rvvFkp669atQul+9NFHeP755zFgwAChNOm+oNKOjIzEO++8g27duuHWW28Vyn7gwIE4ePAgXn/9dVx33XW44oor8NRTT5XIpWHDhvjwww/B/xNM8MR/zTXXiH3GvXfZZZdh9uzZ+PrrrzFt2jSkpqYKkEOrCJ+1Y8cOfPDBB8L1kZycDIvFIqzFVNa0nlAGo0ePFkqajXPm89iHoOOzzz7DoEGDBMjYu3cvOnXqJEAJ+X3ppZdEf7pU/u///g9PPPEEJk6cKMAEZUgXCwEFeXvllVdw6tQp4dZo166dkB+BBEEZ58V+BGrh2Go0QHDPXNibnIlPl5pLXAueyj+QAjfuC+5rvK/PfW2essZXNdoSIPha7Qr8XHFB8WJF4Cntk08+ESdNNp7o+HLlCVFYH4pZTHPqMT4vHoXFwfWMTmhqUvC/mGwUXw5ZgZOpvo/yFyBcdNFFQhhUZPfddx9q164tlDvN40uXLhUKfcaMGXj77bcRERHhFSBw7QkauO5U9Dydf/rppyUAgYqcypFKm3T58y233CJO5Z9//jmefPJJoZynT58uLA18jqqsyZsKEDiep34q6Pfff19YKHj6p3uDCpt0+S7n8ziGoIA0CQAIcGgx4Wme9Gkp/u6774QlgACAypzWAofDIfby448/Lk74nDctA+PGjRP0CJr+97//4cYbbxTzI2DyBAiUA60IdC0QsNAqwH60shCIEKgQkNFqQT4IECZMmICff/4ZLVu2FNYXtn379gnQFQ6txgMEomdWTZyztgCbUs5kLrgrVXWhtIAGb+M8xwdKu+jF692X686bZ5+y+CZNz6qNnhuzLNru49Vx3gCJP3LhtcEfPixjEMLhBSH2nIcVgS/jefPmiRdtyd7W6cSLmidE92ZRdJiUF4djjjNBv3qDTlGtzUEAACAASURBVGQ3tDTKq4mDtcb+AgQqWMYJvPzyy2ItaQGg8uXpmOCPbebMmfj4449FVU0qNoIBNtWCQGXOn6kYDxw4IBSqO0Cgi4D02Kiw33jjDXHCpuWAlicq5q+++kooa29NBQi0dLz33nvC3UBlT1Bz/PhxMWT//v3CikDa7H/ixAkBJPg8ntpVywj5U2vQfP/99yUAgeCIp3kqbPI0ZMgQ/PnnnwL8Xn755YJ/AhmChoceekjIYdSoUbj55psFQLjpppuEW+LRRx8VcuBc6JogIKL8Hn74YTGGFg+CEDYqf7onCBBoeaClg1YIWlbYCGbIfzi0Gg0QiGRpRtt1KAsz1+qRZQ1i5oJngaFSFHvAm6CYvhpAVpYC9vsZKu+6IvAQEtoEJiwa5UUu5QIIbrz7PW9fA0orZuVrnJbPQ0lbaPliJjQXmzrDNKv2sQiPe0bD77//Lsyn/A6xcS0Z6EYTqidAmJgXh+NuAEFn0OHpmBw0lumPWnaGpj6BAARaCugv79evnwAKPDUvW7ZMnH5ppn/22WeFgiRAeOGFF4RZnUr4tddeEz/TF0/QQEVIpaYFINAlQZ87lbHq06fpnwGOjRo1En9XmydAoN+ep36e0skjAQgPeASstH4wMJCnb86Fe5OghxaA+fPni5gE8kdwwJN9enq6UOJHjhwRFg7S4Cmee1gFCAQwkydPxqJFi8S/YcOGCbcKQQUBAV0VBDh9+vQRcQYECLRuqM9j/AFp0n1AhU/wwN8JaugqcQcItNgw+4GN8qDrIRxajQUIauwBfVHz1luw+oDHjY1aKhuWVaWwrNXVStv9xS7ewhq3jC/63oozBYu2ymcgCq94jAAI7lkM3miVg36RRnOTpafyDAXtIMilVL7d5xMi3h22PJHRwEArNp7geLpUX7BUMjwtESgQMjiVov8nO4yYbomB00UQwSBFoE9kIa4zW8XvfMGzUQnJFrgEtAIEBg5SuRMIECAQ0FG50oxOF8HQoUOFqZ0uByo6+tW5NpMmTRIKma4Artlzzz2Ho0ePYsSIESLokPSoEOn7J32esNmfoIONmQ5UvjyV85TOEzv3EpUm/86TOGMQaMZXG03ytBzs2bNHKF820qd7hDzxHc7T+rfffisUOWMd1P1EgEB+eNon2GFjICX55d8YH8F3PwESAzHZGKDJ5y1cuFDEWNBdxowP9iWIYAwB6dJiQTkR7HC/U5lzLrQ6UA4EDQQjPHxyPrR6ULbsS/7UuA5aDOgmUS02ga9+6EbWWICgZi4cOpqBz5eakM87F8qqaliaUi2jFLJYNs8Xdln9/elbHtrelJX7HisN+HjjPQRyKQEIjWO8l4oOlczDXC5nvQa0VU0uGhLIGhXL2KW4sH/fXqxbuwpOe4EwxzJinI0nSAZvMUiREdlGkwnHXAZstplx0mFArqLDKZdBBCa2NzoQbVDQWO9AW4NDVGvkWAax8btImird0L3uqi9lrQCBipWggEqR60elRQXPID6a5HlCrl+/vgAJNO2rCpcxJjxR07xPZcnTP0+6VOJce5r2GaRI8z7H8fRPpcnTMhvN8fyZJ2kq7h9++EEEGd57773iRM4sA5rdOVZtZrMZHTp0QHZ2tuCPjfyTFvvy+dxDtAZQIZ9zzjniZ5ry6f6gC4VAhzTIC2MSyD/Hkk9mOdAaoc6R+5gggeCX82Mj6KBMeLpnECTnwP1KevwuMK6BVgtaBhiHwefTEsJnUoa0iFCe5557rojr4OcEBJRPs2bNhOsiPz8/bDdmjQQI7pkLM1ZYsS3Vw3oQtstVMxg7CyDUjCmH7SzT00/jg3dew6FDB0temPQ7M+3Ls2Upesy2xOCg3VACjKMNwLDoPBFv4G604cuWJy71xc8XMU3Dni6KsBVMmDGmFSBUNtu0LtACQHBCawb98bRSqEq6svmTzz9bAjUSIKjWg11JWZi0wgi7U6t9XW6fipBAuWIQKoLBGvSMPbt3YtTI5866YGzw4MEiOtuzpTiMmJwfW5KxwM9rGxU8E5sjUhzdG/PEadqm2VZtTI2j6VY2/yVQVQACrQ88bTPjgFYHnvLVOBb/Zy1HhFoCNQ4gqNYDZi78uK4AG5JMwQ4fDPWaVXv6EiCEzxKnpBzCayOfR15ermCKJumnn35aBGZ5tuMuA6bmxSJLBdwi3sCGWyIt/wqfoZmVfmX6gdVGfzAj1WXzXwJVBSD4PzM5ojIlUOMAgmo9OHAkE1+tNCDbKoOjKnMDenu2BAjhsyI84c+Z/TV++/lHwVSfvpfgsUcfLglWdOeU4YYrCiOxsDBK/Lmt0YF7o/IQ4aUoEgO4vvnmGxEIR9BBwMGALjUIMnwkUDU4kQChaqxTVeOyRgEEWg8YwMKo0x/X5WPNAW1VE6vaolZ1fiVACK8VJKg+evQInA4HmjZrAaPeUeYdDaedehRChwZ6F0xlVEzk95GR8PQ/M2BLZjIEvu4SIAQuOzmydAnUKICgWg/2H87A58tMKLSfqXug5uN7Kxrk+TdfhYOEKdbNqFpW4aCyaJOOr6JK/tAuiy/3LeKN94qUi1kUSuqINk1i5Hc3LCXgguLI15x1G5ZTqGZMBQoQmMvPTATep8CoftmkBM7SBYmJiTXimjX3Gxuni8yFopKwavOl9MtSkCqNQKocuj9fa7lkf/h2BwWeIMidTqC8h0IuEiCE/0tKcXq/oyH8Oa+eHAYKEFg9kQWIeA+DWp2wekpIzioQCdQYC4JqPdiZlI3pa/TIK9SeuRD0aoKBrFSAY0LJe6hoS4AQ4GJrGJZ8KAknT54QPVkI5px25yIjPR1paUWla9k6de4mPtu7p6jkbsdOXWA0GLB/fyJOnUxDdEwsGjVsgNTDB86KQGdeeJo+Apkug6i9YIaCVno77NDhsMsIm0uHenonmhicSHSa0FDnRLzehYMuE4wuBRacsejRNcFvqE0p+p7yvw31DpxQigo1MbS4md4hL30qXjN/AALXlnn4fCcy4JR1DFSAwEJIzNvngYp1EWhVYFwIsw54gRE/49/4GfP9+RlTVtVbPTVsQdmlCkmgRgAE1XqQnZOLeeusWMvMhWDbTcpRytbnfgmkOp5PosUdQkmbjwiAvgQIWhfP/34zpk3CyuVLcMGFPbB71w706t0PBqMRy5YsQPcevaDT6XHr7UORnZWJcR9/INbvmRdGIv3USUyf+iUaNGyII0cOo/25HZCfl4vDKYdEdT0WpHl55Egs0dXFJpsZXU02HHCY0N1ciDxFj30OE+rqnEiHAf+NzMO3BbG40mRFB5MdE61xaAQHMvRGnLbpEK0HGpucSGcsg0uHtnobDDodGuqdWGGPREejDXsdJlxssuGyCGkW5y7QChBYfIh3A1x11VUi9oOKn0GiBAhU9gQMVPx8Z7II0RdffCHqFfCeDRYsYklkAgReBc17FZi2yIqMvGlRtuongRoBEFTrQQqrJi4zIqeg+KRSVuVCz0p16tprqTLoq8pdaRUbtVS8C+T5ZfGupYyxlgqPgfBVyhiznqWWZQxCKF43X305XgCEAYPuwML5v6Fnr77iJb940Z8YMPB2YTm48eZBmP/HL9i86W+R3tj/iquw8Z8NsNkK8dLIN5GaekTU06dyeeKx+0VNetYv0On1+MkajY2FZlwdZcU6WyS6mm3Y7jDjRrNFFEuaZYlBQ70Lux0mXB1hRSeTHZ9Z43GV0YrWRgdmWGLRzViIHhE2zLTGINulx/lGG+INigD1K2yRuMxcgLW2CHQ32XC5BAhim2gFCKxBoJYtZhXBSy+9VIxnmWxeHMRKgixfzLgEfsZy2qwUyFLLrL7IyoAsiczG8SxsVatWLXG9s3vKaij2rqRZ8RKo9gDBvWrinDUWrD8kqyZW/Dbz74nMYhjzcAec0zTWv4Gyt08JECAsX7oI557bEYcOHcBLr7yFtWtWYuni+bh72EMwGozo0+8yjHn/TbhcTlitVtSuXQdWq0VkAL348hvYvHED6tath46du+JJARB6/AsgtItw4ITTgLsi8zDTGovrIixoY3TiG2sMmhqc2Os0oZ+xAN3MNozLj8dNERa0MDj/BRAsih69zYWI1ivId+qw1BYpxqc6DBgalS9AhWzAnBUn8cOkEVBs2WWKg/EGvMBo7Nix4spk3j3AUsKsYsmbD3lHAi8iYiNQ4FXE7EeAwHsVeAESAQbLCPMCJ1oW+vbtizvvvFPGMFTDjVitAQLBAf9x0+9NzsRnS4xwujxiD7Sc2suz8L6sCcGm7WnWD5R+JcrFaABe+m9bXNyhTqDcy3GlSGDypPH4a+1KPPnUC5g4YRzatT9PAICFC35Hi5athIvh5ltuxdSvvkDvvpeIU/tfa1fhnnsewNQpX6Be/QY4mXYCtw+5GzfcNBCPP3ofevboLhSEakHgXQwPxOTiu4JYtDPaRWTBLnsE4nROZCsGPBydjZW2KOEmiIECG03cUbmiXsJZFoSCWKTaDahj4E1PQDe9DdtdEbg7MhcTLfHoZLDhpihLjV9rh1PBjAXJ+HPmG4D9TOEpb4KhhYA3IrKK5YIFCwRA4L0BKkBgfQoCBL43eWMnbz9csWKFAAgEELw2mRc7sQoiLz3iRUS0NNx1112iKqJs1UsC1R4g0M+WlZ2L71YXYGNKUYCTbOEtAT0r8HWuhWcHt4XJGMQruMN72hXCHS9eOnkyDRd1vxj7EncLC0FMbCxOnz4l4g2ICxs0bIT8/Dx07lJ8C97WTWjdui1ycrLFxU316jfEBRd2Fz7rDevXol6dBLRp3UL4sg87DMhwGdDZZEOSw4RCAG2MDhx0GJHr0oufec2zRdEh0W5CvqITloXGBgccik70q613op7BhSSOKanKqBPjeN9De6MdRx0G8XNX05lSzRUiwDB8yOlsOz6YshxJ66cDTkq89MZLjUaPHg3GItBdwAJVdMGyiiX/8cIs3kjIIEYCBwIIuhYkQAjDha8Alqo1QODGJyLmnQtfr9EhyyqVTQXsqaA8ItIM3NG/CW7s0xgRJrluQRFqiIgoihNwWMT1zbJVrATyC5yYNv8wVv05Hc4MZp2UHX3NS7F4Nff//d//CSsBL8vi7Ya8jpmxKLyCmDcP0oXAGAMGIPIWwueff15cqcyMBQIJWgtmzZolbmJs06aNuMKYYJPWWtmqjwSqLUBQYw8YOPPT+nys3CdjD6rato0wKeh+bi3c0b8pWjSMhoGmBdnCUgKKwwIoDmFFkC30ErA7FWw7mIdZS0/gyObZUDK2anroFRdeiHSns8hqcNNN+PC779Cgbl3cceWVeOerr3BBhw64sk8fjPrkE9xw+eU4v2tXvDZ2LO656SY0O+ccjBk/HsMHDEBk48aYMHkynhw8GHlxcfh65kwMvvJKTJwzRxMfslPVkEC1BQjumQuMPcgr/PcptKzCQeVdvrKKHpWXNsdXBO/uxaOCwbM73/xZC329XoFBD+h1WnoHi0tJJyAJZO2CXingjU6a1jagZ8hBQgK02iiF6XBl7QYKTmuWyoWFhbjz4otRy2jEtoXz0frGmxCdm4vE1avQYtCt0KekIHXrFjS7478o3LwJmQcPovGQIchZtRKFJ06iwcCBOLl0EYx5VtS74QakzP8dCToTal/5H/z15x/42mTWzIvsGP4SqJYAwT1zYeYKKzYdObtqYmnL4q0qoNq3tIqBpVUg9HxGWbRVZVlW2WRfW6msokWllXMOBu9SLmWXw/Zc02DIPFz3i5L6O0zpa8SdCtKS4OsbWzmfGxUFvS35yHApOBgdjX5WCw5Dh9SoKFxhycdugwEnzRG4xpKPDSYzsk1GXGOxYLU5AlaDAf2tFqyOjIQLOvQpsGJNVDRMigsXFBRgbXQM8o0yzqtyVjY0T62WAEG1Huw+lInxS5m54F14Zd2XEOiL3RNQeDs1lwcIeJ68fdEKpNqhlIvcL/68bkpAovU4dAenwKTkC4AgQYI/UpR9pQTCTwLVDiCo1oPM7FzM/cuK9UlGH2E74bcokqMzEmDYAV0M9GxL93aY7wyXA8jcCr09A3pd8aKFOctVlT3F5QJsmXDlHQLseVV1GpLvMJdAtQMIauZCYkompqzUIctSHHtQWuyUr1LAZZVQ9jW2yHxQ1Lw9v6zx/tD2Rt/XeF+locsz3tdYjXIxGYGOLWJxfa+GaNEoGkYZpBjmrxPudxcUJzMaZLBiKBfL5nBh58Es/L46Gad2zYVCoCCblECQJVCtAIJ75sK8dflYud8tYKY0peWr3LIqcF9KT0vJYnfF6KnUAwELweA9TOXC+xiuvLAu7r2mJWKipF8zyN/7kJJTHFZAsUuQEFIpFxFPz7Fj3A/7sXv1FCi5yRXwRPmImiSBagUQ1NiDA4czMH6pAVabl/z50u5YCMaqh5K2CiiCfcmUOu9Q8u4nbRoKurSJxcg72yMmUoKDYGzNYNFgOM8uuw7HnDo0NSg4z6jA6GksUFxwOvKR4jIg0WlEvM6F7kaHqJQoW/AlkHqqEO9P+hPHt80BXLJwVPAlXHMpVhuA4J65MG25Fds0Zi7U3KUP35mz1PLTt7bB5efXC18mayhnP1gNeNpiQHMoOK7X4WKdC6/FONDRLVGoUAHeztXhW4cRTVwKcnQ6DDIXYlRUfg2VWminbXcomPL7fiye/a7PUsuh5URSr24SqDYAQbUe7EzKwtSVeuTbpA+0qm5Wxh6MHt4R7ZvJy5rCaQ1POoGHc414JMqJK8wKUp06zC3QY6VDh1sjXLgxwoUdDh3G5BvQ0ujC/SYLuhrs2Os0YqglFrOi8tDJJC9XCvaa0i7Dy5rmarisKdjPlvSqtwSqBUBQrQfZObn4cZ0Faw+YxCUzslVNCZiNwNhHOqFNk5iqOYFqyvVuhw7v5RswI8EhLmBicyrAFocO7+cZYdYp4m6FB6MduNykIEaxCpO3S6fDnbnxuMpkx7BIazWVTuVOS+t1z5XLpXx6VZNAtQAIqvUg+WgmPl+qR07xnQulVTMsrViNZ60+X9UQ/aHvrQ5gWfT9oc1N5w/voaRNXvyh700utCCoAOFf7m23b5j7Z6XhQa3ji/g+04JN21/6wUp6CaZcttp1mGg1YFJ8kRVApc3/Ly3Q4+5cI+6PdOKNOCcMxdX+4CiqifCCNRb1dS48HylvXwyFkpAAIRRSlTSrPEBwjz34fm0+1h4sylwoS2G6f+6rIFJplQLdt44n4ChrjK/CRr5496eIkcqjViASLnKJMOoEQGjtYUHQquyDndxRJJeiVhbtsvqdvV/OfvF4o63S8pUc4/7MM+vtG+h4u4Xc13i6Dz6xGPBVMUBQ+/9t02FkvhG3mFz4y6HDVWYX7opyQWSlOousCI9b4tHe4MQTEiCEROtIgBASsdZ4olUaIBAc8B9vEEtMycCniw2wq9fDlrK0gVQW1LpLfJVT1kqntH6h5l1rGWB/5+GvXMzFAEGri8HPJAm/2A81bU/Q4RdzPjoHm/ckhw4v5BrwXS0HzLoisJThAh7JMaGf0YmbIhXscujwRL4RE2PtuDJCEXURHA4LbsmNxzBzAW6NlLf9BXONVVoSIIRCqpJmlQcITqcTWdm5mLXKgo0pMiWuOmxpfwFCdZhzuM/BoQBJTh0ezzPiGoMLpxUgRdFhp00HxgNHGQAWTyRqcDqBAqcO7U0utDUAjRQ7pjjN+CIyF31NDkTKdMegL7cECEEXqSRIy2liYmKVDedTqybuTMrE9NVAdnHsgebqhe5bQGvSg9bKiOWh7c1uXNpRUyvf7uN9ObjLw3sQaEuAED7vJieAHXYdfrHpkejQ4YiDdywAD0Q5kejQY7Fdh7ExDjQzQMQdsE4CM/EnWAw47QJuiXRhsU2P9YVAJ5MTDfUuXG+y4RKjDRH+7N3wEUlYciIBQlguS5VnqsoCBDX2IC8vD3P/ysWqfeazMxdKs6+WFn1WllPWUzmX5TRWt4RWR7iW/p6AwZdj2pez3hskDCO5SIAQHu8VbpNJ+XpMtxlwndGFO6Nd2G3T4SWLAb8k2DE834T7TC7cEe0UloM0F5CgB6J0wE6HDo/lGvFFrAM/2/QwOOy4L8qC3+2R+MwWiX56O16PsqCuvpSb1MJDBFWGi5oGEOrVqydcy7m5uVVmjaoio1UWIKiZC0eOp+OThQbkFni5HMZTEZam2LWunC/FW9opXwt9LbQDpV8WbXfwEagtSQvvftAWAOFRmeaoZduEqo9NgQhIXGbX441oB3qaFRGome0Crsgy4QK9IiI3J8Y7cNipw4g8A1YV6tHGqGBMnAO9TAo+yjdgrV2HSB0wMtqOLro8YX045dLh7YIY2BUdxkbnIUq6HMq9jFoBgtlsxtVXX422bduWPHPOnDk4fvx4uXmoSAIff/wx9u7di0mTJpX52JiYGNx+++2Ij48X8WoEFH///bcY63CUvyZHgwYNEBsbi6SkpIqcfoU9q0oCBPfMhZkr87Ex2e3OhUBFF+yILk8zvR8K0q8plBf0+HpYJchFAgRfixL6z/fYiywAE+IcOM909uadkm/AWKseE+Mc6Buh4OM8Az7KM4DuCLaWRgWr6tqR6wJuyjLhPIOCTxMciHMVQKcUlQI+5dLjYUssHjAV4NoIW+gnVM2foBUgxMXF4dVXXxWAYMeOHUIq//zzD7Kzs6uUhLQChGbNmmHcuHEwGo3YtWsXevTogbS0NIwaNarcSl2v1+P+++9H3759ce+991Yp+WlltsoBBPfMhT3Jmfh4AT2fslUnCUiAUPmrucWuw3O5Rvxcy444jytNFlp1eNFixLfxDrQ3KXgz14BJ+We+h7E6YEd9G0w64MZME1oZFHwc70AUIxREXQTAqgAP5cfhWoMd/40qqPwJV3EO/AUIixcvBv+p7dJLL0X79u3RsWNHHDhwAL/++qtQfm3atEFqaio+++wznDhxAsOHD4fdbscFF1wAundnz56N2267DXXq1MHkyZOxefNmmEwm8bd+/fohMzMTn3zyCRISEnDnnXfijTfeQGRkJJ5//nmsWLECK1euxGWXXSaeO3XqVPH/u+++G1FRUeLzH3/8UTzvkUceQUREBC666CJhNRg0aJCwAnz33Xd45plnsHPnTjGf66+/HgsWLEBGRoaYGgHCp59+KgDRk08+KfgfOHAgXnzxRWzbtg233nqroFVQUICvv/5a0Ljwwgvx0EMPoVWrVkhJScGYMWOwf/9+NG3aVNA477zzBNgg748++igIuvj7jBkzBNiqTq1KAgRmLmRm5+L7tRasPygzF6rThuRcJECo/BXNdwEv5htFpcSXYpxobihyMRQowC1ZJjhcCi42K3grzonNdh1ezDVit12HBnoFz8c6MTTKhVlWPcZbDGikVzA6zon2RhfgLEC+04kZtkiscpgwMToPtWUcQrkX3F+AcPToUWzfvl2Y3desWYObbrpJKOE//vhDKDmazRs2bIgjR47gjjvuEH2/+OILfPTRR6hVqxZ+++03XH755WjRooUYQxN+586dcd999wmFSzcGXRddu3bFxRdfLKwWI0eOFDRo5n/77bexZ88ecZIngKCy37BhgwAQHJeTkyOUNwEIn8VxdI/8/vvvwvJBxcw5EDSQH1oUyMPLL7+M0aNHC8DgDhAIAH755RfcfPPNoHua/BAQPfHEE1i4cCHq168vQM8DDzyAK664QoCD06dP46qrrsKhQ4fw+uuv46WXXkL37t0FMKBsOO977rkHjRs3xvz58/Hnn39i9+7d5V7LcCJQ5QCCmrmwNzkTU1YqyLScOd545tv7ql7ovhClFSBS+wRSMMlzLH8vq4qjPwWN/KXt/uxwl4solPRoZ1lquZLfFBkuHcZY9Njl1OFuswvXRrqw3abDPXkmTIu141WrAa9FOXFJRNG9DAcdQH0DxA2PvO3xwVwjnot0Yp1DhzpQ8FCMC2ttCr6w6hEBYESkBZ2N5fcDV7KYwuLx/gIE+uapYNnGjh0rTt48yfNkb7PZhEn+/PPPFxYEWgJoPeBJ+v333xcAgkqcoKJnz55C2Xbp0kUoe57+n332WaE0eUKnIiWQoEK/6667xEl9y5YtGDx4MGiip2J/55138Nprr6FXr14499xzhdJmfABP+zydE0CwH60aqtWDv59zzjnCTfDuu+8KtwEtF4wJOHXqlJiDO0CgBYO6g32++eYbTJs2TQAJWgM2btwoABGtE5wLAQHnTN7pPmAwJOXCZyYmJgpwQ74IdJ5++mn0799fyIIHVwKu6tSqFEBQYw+4MPPW5WFF4tmxB76qIpa1cJ5FiLSULtZaWMgXbU/g4E9BJH+Biz+0yZcv3rVUhixN7qXRlhaE8HnF2BXgj0I9Pi4wIEoBzAoQXWwR+N6qxwKbHtPj7ajNOgjFbDMvYbJFjz0OPV6LdeL3Qh2+sRjQ0KjghKLDHSYb7jXn/ct1ET6zrnqc+AsQPF0MNLvTtP7KK6+IyQ8bNkyAhrVr16Jly5Y4efIkPvzwQ7z33ntYtWqVOI3TSkCfPhVmp06dxOmf42i+p/JXYxxIj1aAK6+8UrgtqJD5j5YJmu55KidgoKuA2QnPPfecULSkxd+pmAli6E5Yv3694I9/o9KnYufpXj25s6y3u5J2dzF89dVX+OCDD4QLhWCGfNNtQMBCEMBxM2fOxIMPPijmRStE69atBajhnOhm4fMJlOgmIQh56qmnxLyuu+66agcOxPu/KtVBUDMXko6waqK2Gxv9VYj+vBqqKm1vit+fefvqW165SAuCLwlX/OdZLmCNTS8ua2pjUER8gdUFbHLocJ4BaGBUYNAV1UGwOYHtdj2aGV1ooIdIP17u0OOFKCduiXSiMV0KzvwSQFHxs6l+Tww2QKCfn6CAp23649PT0zUBhKFDhwrFTvP9xIkTRfwArRDLli0Tp3vSY0AkwQBBAZUrwQpdFwQpHEsQkp+fj8cee0x8NnfuXGFF8AQItB6Qfp8+fYTCqs/u1QAAIABJREFUt1qt4iRPN4SaleEOEKjM6YLo3bu3sFp06NBB9P/hhx+ENYVWD1pGGEtB5f/9998LiwhBx+OPPy7GEFCQH7ogJkyYgCFDhgiXCsEHwVRycnK12lxVBiC4Zy5MX27B5sMy9qBa7US3yUiAEJ4rm+LQ4akcA6bVcgjlzv+mOoEnc43iuucLTS6cdurwcL4Bo6JcGBTlFCWZDQpwV7YRt0ewZkJx3QPnmYyG8Jxt1eLKH4BAK8GiRYuwdOnSkkkOGDBA+OCpaNnoFqCrgKb+w4cPCxM+T840569evVqY++mf50mbipPBhTzJU2E2atQIL7zwgjh9871NpUlTPH+mJYCxBOSBCpqneLoSeKpnYCKVOBU+G0/r48ePF4CCAIHxCKoFgYCCMQz8G/livAAVNy0L5JvBkmxNmjQRJ/9jx44J2uSNwYTkn/8nH3Sl8PBJGrRwUOETGNBlwFgIggXGGqguGPJJQEG+aXUZMWKEABG0TtC6Up1alQEIqvVgZ1IWvlwOWO2yDFt12ojuc5EAITxXlvcsjLUYMNXtsiaq+18K9BhvNeDNaAd+LDSISoofxjnOqpT4Yp4B9fXAcyyqxKY4AYdFZDTIVn4JaAUIfJLBYBDKz73RJcDG96zaqMip+Gh+V8e49+Nn/Mcx/D/7uNcWoCLl3y2WMzd48nfS4PPdfz7r+x8RIcCEGkeg8sznqO4DPkv93Z0OTf90Cbg3xlOwrzo3/u4eL8DgRsYmZGVllfDFGAPOhbRIX5UXn8vPmMGhzjU6OloES3K8jEEo/172m4JqPeCdC3PX5WPtAWNR1UTPssda7ust7YWkhZa3MsulPdN9lmVVPvSsY1Ba0aGyXqSl8e6tRkJZFRO9rUwlyCXCJIMU/f6SVMCArQ4dJloMojiSeytUgKlWg/ish8mFsXEOUVHRvb2VbxBf11ExqmLipQ0F4qZHvoBlK58E/AEI5XuSHF2TJFAlLAhq5sKh1AyMXwJku2UunLVYvpQtO5cWZFqa4lQf4EvZloc2x/pT6tl90r74Vmm78+ftfRxGcpEAITxfQep1z1M8AIJFAV7JM2JegR7nGBTMSrCjoUd5kmdyDWhuAJ5WLQhiP9KKwLoIEiCUd8UlQCivBOV4bxIIe4Dgnrnww9qiOxe8tvJW/CtrfKhplwUutOzbyuS9PFk9pfBtNunw4SOdcU7TGC2zl30qSAJMZXwi14B3YpyiumKeC9jm0OObAr1wFTwZ5cRKuw4/FhgwJNKJa8wKGhkUnHDqcFu2EW9HO3BZpMeGcVqlFSEI6zdnxUn8MGkEFFvVqogYhKlLEiGUQNgDBDX2YF9KBj5dpEehw8/TRnmVe1nCr6q0vVksgrnJyikXk1GHl4a2Q6+OdYLJlaRVTgnwyucJVgNmF+pxsUFBksIMBR1ui3DixkgXEnQA73DYbtdhUoFBXAfdSacg1QXU1gOfxvGqZw8mFJnRUM5lgcOpYMb8Q/jzmzcBu7y8qLzylOPPSCCsAYJqPcjOycXXK/KxKVlmLtSEzWvQA5d2q4tnbjsHBr2fgLAmCKgS5+hSgKU2PXbZdWhnVHCF2YUoj3gDssf6CZvsOqyz6VHfoGBAhAsxXvqJqciMhnKtaGauA+99tRwH100DnIXloiUHSwm4SyCsAYIae7DjYCamrVKQYz3zhvEsUuStEqKWIkKlbYfSqhqWVYzJW4VCb/RL491X0SEt9KuLXKIj9Bh2bQv8X/eGiDCVplnkl7laSEBmNAS8jHlWJ2YvS8Win6fDmcHLl8rj8wuYDTmwmkogbAHCmdiDPMz9Kxcr9xVnLhRX9+N6lKdyYpGV/czp1Jfi11o1Ud0n/tD2nIuvvVYW7eokl7hoA/p1roPrezdCi4bRMLISj2zVUwJOC+ByyIBFjatrc7iwM9mCX9acwN7138NxemtR0KdsUgJBlEDYAgQ19uDIsQx8vBDIKZCnyCCue5UhRVBgNjB3mjnXVYZtyWgAEtBZT5RcBy3XumwBKi4nXJZUuE5vBApOByBtOURKwLcEwhIguFdNnLUqD+uTTL5nIntICUgJVGkJ6FJ/gzlrvSi4I1Mfq/RSSuariQTCDiAQHPAfq3ftTc7A2AX6oqJIskkJSAlUbwkUnIIx6SuYwAqLRVX6ZJMSkBKoPAmEJUBgWUtWTfxudT7WHyyuuBKKd4W3yojBWgstFRbL86yK4D2UMufcfdBnBkPdeBPaNo5BbLRRZjSUZ79UlbFMe6QvPRR7r6rIQAOfLqcT6SdTkZL4N6xpW2V6owaZyS7+SyDsAIKaubD7UCamrnQhk1UTPZWtr6p/ZZUHdpdRadULvdEvrZKi5KVIokFeI4KDds2icc81LUXBpJhIo4xB8P/7XfVGyIwGTWvmUhRk5zmxMzkPU+euRc6+HwFZJEmT7GQn7RIIK4DgXjVx3l+5WJboFntQ1n0G6mnUX1dEWfcSaFV4pcnaH9qeCtbX+vm6T6EieQ+BzGlZpuVg9COd0bhOpC9pyM8rQAIdxu/BacvZdzAE67GP9qiHN/o3PkPOYQEUmdGgVb5bD+Zi9PjZKDyyCKAFRjYpgSBJIKwAgpq5wDsXxi0E8gpl5kKQ1rlKkTEZdBhyZTMM+U+zKsV3dWa2QgEClZy4o6E6SzR4c7MUuvDpd5vxz/xx4oZM2aQEgiWBsAEI7pkL05flY1PKmaqJpRUtKjp4nznClllIyJuLQMN4lb7PIkWllBcua7xfvHs5qVdXuZhMOrz3QEd0ah0frH0u6ZRTAhUKEMirrK6oecVY3fLbpcfw85RX5F0MmqUmO2qRQNgABNV6sCspE58vAWxudy74KmKkTjQQhRkM2qUBFX8qI1YW7+WtGOkL5GiVgXu/SJMBHz3WGW2ayMuatHyJK6JPhQMEGYvg17LK2xz9EpfsrFECYQEQVOsBMxd+WJuPtQf0ICr2p/GEr6XaodZ+7s/WOkZrP3/mFQgfgYwJhHetY7T2U/mONOnx0WNdJEAIdKOEYFyFAwRaBp0F8qZHjWspAYJGQclufkkgLACCmrlw4EgGvlhSnLng1zRk5+okAQkQwm81Kx4g0P/nLI5FkMEIvnaEBAi+JCQ/D0QClQ4Q3DMX5q7NwXL3zIVAZiTHVHkJSIAQfktYKQCBYnBapRVBw3aQAEGDkGQXvyVQ6QBBjT3YfzgdnyzUocAuTwt+r2I1GyABQvgtaKUBBGY0OPNl3SQfW0IChPD7zlQHjioVIJzJXMjFtGV52JRSXDWxOkhWziFgCUiAELDoQjaw0gCCsCIUlFziFLIJVnHC/gAEk8kEVqvl4awqN5bi5lw8G+flcISmZocWeSUkJKBXr17YsGEDsrKySh2ilhKnHgzXVqkAQY092HEwE1NWuJBjdbMeBNuQUFGlj7nSVYn3MJSLBAjh97rwChC0vNdKq0DqNsV/FUrynL7MaPC5IbQChNjYWIwYMQJLly7F8uXLfdIN5w4tW7bE559//q87O3777TdMnDix0lg///zz8e677+KTTz7BokWLvPLBC8mGDBmCtLQ0sQ6VCWjKElSlAYQz1oM8zP0rFysTDWcuZfJUsP68iDjbsioJViXa3ubivprVVC6RZpnFUGlvt1Ie/C+AoABDutbBBU2iREEjtU4IM4l4IOLW/GN3FlYdyUe8SYc7utVFnxYxKHQqWLwvG/P2ZEM9v/oECMKKIGMRytoTWgFCXFwcXn31VSxevFj8U1tERATatm2LyMhIHDhwADk5OeLnOnXqICMjA+eccw6OHj2KzMxMMUSv1+O8884T/7dYLOKkzJ/NZjOOHTsm+rRq1QonTpxAQUEB6tWrJ37Pzs4W9Pn+Z/9mzZqhfv36Ynx+fr7oT6sA+5LWwYMHxXhvLSoqCp06dULz5s3x5JNP4o8//sCKFSvEOPK8Z88e8YwOHTrAarWKfw0aNBD8dezYEampqYI+G5/Zvn17wcu+fftEH57wyR//fvr0aezatUso8tq1a4vnkq9t27aJ3xs2bCguGGzcuDF2796NSy+9FGvXrhXPJJDhnC+88MISvihrghj+fdKkSdiyZUu4feUFP5UGENTYg8PHMvDJAgXZVlk1MSx3SCUwJQFCJQjdxyO9AYSvB7fCbV3qCETO6pd6nQ4OlwJnseYf8ecRTNx0Gp9d3xz39aiHQoci+kQYdXh18VG8t/IEnAqgCSBIK0KZK1QegECF+swzz6Bbt25CoVK58vfWrVvjhRdegNFoFGCBp97//e9/QpmPGTNGKH2OpUl9+vTpIPho06aNGMv2ww8/4M033xSK86233hLKlX1mz54t/t1www24++67haKlYqVJ/o033sDTTz+NCy64QICIQ4cOibFUwKNGjcJrr72Gw4cPnyULKvAvv/wSX3zxBb7//ns899xzuOaaa3DHHXegVq1agtf9+/cjJSUFt956q1D28fHxgv7777+P1atXC54vv/xywQuBwdtvvy1+5lj+n//Gjh1bMnfKg/2++eYbEFzdeeedYp6UEXnkPEaPHi1cOSNHjhTPJJCgvGbNmoVGjRrhyiuvFJ8TYN14443h96WvLIDgnrnw7aocrN1/th/JWz0Dn5UM3cSrtXqh+4popR9K2kUGgyKzgDd+aopcJEAIv3eFNxdD/9axaF07QpgLHu5VHz2axeDHHZmYvy9b7OKNqfnILnRiy+MdBYB44tfDqBNlxIBOtfHZ2jT8tDcbNpeiDSAIK4KMRShtZ5QHIFCp8UR78uRJccJ+5ZVX8PLLLwslSqU8depU7N27VyjqhQsXip/feecdPPTQQ+jSpQueffZZ3HbbbcJk7g0g8DRet25dcSqngqY1giZ4KlBaMRYsWCBO0RMmTBBWhOeffx7jxo2DzWYTtD/99FMcOXIEV199Nf78889/+fXdAcKcOXPwn//8R9AgQDl16hQef/xxfPbZZ8LSMHjwYPz6668CZBDscD5LliwRQIFul/Xr14ux5ItAiSDj22+/FVaBpKQkIRfOkTIhr7SI0KVAgECgQZBz/PhxfPDBB2cBhL///ht//fWXkBnBwpQpUwSIIM0ZM2YIa0M4tgq3IBAc8B/R1t7kDIydj5ITh6di1FqFTxVsWVUR1T7uildrFUV3xe3Oo6fCDpS2N/r+0C6Nv6oqFwkQwu9VUWaQokvBnP+2EdaEkQtS8e7qtJIJtK8bgZ1PdkKBw4Vzx+zAKasTsWY9cmwu/1wMYpPLOxpCARBoNbjqqqswdOhQMEaBp/xHHnlEmN2pLO+77z7xzqZPnWZ7+sw//vhj4V+n4u/cubMACA8//LBXgJCYmChAB039PHlT2RJsvPTSS8I6QeVJ4EBrA03/fHZeXp6YakxMDN577z0sW7ZMWDe8BVZ6AgS6BQhA6IIgv71798bAgQOFtYIAge6IHTt2CGBAhU6Xwj333CPcAXa7XciACptWEc6TckhOThYWhA8//FDEDRAopKenCyvCsGHDBP8ETRxH0MS+7hYEzpcAgmCAYwgOGD+xdetWvP7668KKEI6tUgACzSqsmvjtqjysO3jGtVCagtUqOM9Tt5YywlppezvV+wIwwabtCQS00q9qcok0G/CxrKSodXkrpF+gAKF2hAELhrVDj+YxOJJpwxfrTuLXxCzsz7DBXlwuVZOLQZ2ltCJ4Xe/yWBCoEGmep+mbPvEXX3xRKDcVIFABslFZUtnT707lTvM/FTlPwzwJDx8+HBdddBEee+wx4cvnyZ+KkAqap+yPPvpIgIR+/foJgEArARuVI8EGLQl9+/YVypzKlq4MAgh+TisHTfQ81VN/uDdPgEAgQf5UE/6qVasE+CBfBAjkg/yOHz9eWA2opJ966in8/PPPAvwQxBAE8Ll0bVD50/1ACwd5U10TjMfgz7RsDBo0SMyJFghvAIFWiDVr1gjgkpubKwDTtGnThDwJOuj+CMdW4QBBzVzYdShDZC5k5gc75D8cxSx58kcCEiD4I62K6RsoQNDrgEubx+DNq5qhX+tYEcCYlFGALzecwoQNp5HvcGl3MQiE7AAcVnnTo8ey+wsQ6AtnkB4V3Ny5c4Ui37lzp1DIl112GZ544olSAcKmTZuEn50AgZZgKm364hlYyAwJKmT+zABHKk3GNlx77bXi7z179hQmdv6dp2zyQUVLpUnTPxUlLQakTf5oDaAiZywBXQJ0FdDdUBZA4Gfdu3cXipf6hnEUGzduLAEIdAvQWsAYCp7iyRfpEoQQINFqQcBCdwt5p0zatWsn3Ab824MPPih4oCWAY9l8AQSCGro7GGvBLAs+l24K8kDrBK0m4dgqFCCosQdEnXPXZmPpnjM3NoajcCRPlSMBCRAqR+5lPTVQgFBC06XghnbxePe65ujSKAq5hU7cPPMglh/K9Q8gkCCvNFYc/0pvCz+pVRxHWgEClV2fPn2EK0BtPDk3bdpU+O4ZJ0ClT1M5FeYll1yCefPmia7XXXedUHIMXrz55puFS4EBigwQ/PHHH4UlgeCCEf48ifNkzxM1T+M8hVO50szepEkTEbXPuAMqXZr7aaVgjACtF/ycp3JaDOgiYDwA3R4MPKRyVd0PKv+MlaCLgz5+ui/U9ssvvwgrBIMeCWJUCwItJQQvmzdvFm4G6iUCEM6JwIbAhBkRbLQ4EDCQNi0ABByUH60iBBqcd4sWLUSGAuMZKD/O8/rrrxe0GW/BIEU+k2CAlgvKk89kP8ZtqFaYitst2p9UoQBBzVxIOZqOjxYoyC2QmQval6rm9JQAIfzWOlCAEGHQoVvDKOw5XYBcmwu1THqsGH4uujWOxnO/HcbY9af8BwgyFuFfG0QrQAjGzhowYIBQ+MxEoJ+fSo7uBH/qKlA50sXAMbQa9O/fX5zev/rqq2CwKE7+pP/7778L3hjwqAIEWiJoLamIxnkRIDDOgACjqrUKAwjumQvTlubgn2RpPahqm6Wi+JUAoaIkrf05AQEEBrZd3xyDOtfG6kO5mLzhFBIiDfh8QCs0jjNh+I/JmLwl3X+AQLZlLMJZi1eRAIEndsYU8LTN9D8G+fHkTiWstdE8z+BGWhsY68CsAloVWH8hGI01Gnr06CEsGExxZGPqZNeuXYUVghaFimi0LrAmAmMdmN1Q1VqFAQTVerD7UAbGLQTsZ8eZVDW5SX5DKIFIkwEf/09e9xxCEftNOhCAoFOA/i1j8c2QNmgYZwLjEdhcioItx6wYOjsJiRmFgQEEWReh0gCC35tHDqiyEqgQgKBaD5i5MGdNHtbu159V7NCn9MoqB1zeUsGhpM2JqfS9xWKGM++VKBcJEHx+Iyq8Q5kAQQHuu7AuLmgSjd/2ZGFRUm4Jf3QiXtQkGjd2SECrhAhR5+Ngpg3zdmZi56miCnl+ZTGUUFaKrQiVV3O/whehjAdWpAUhnOYteQmtBCoEIKiZC/tSMjBxqROZluLYAy2lgtX5l1bT3RsN9vWHNp/hOaY0GsGi7Q4eypqjr/WvhnKRAMHXolf8574uazKw3LJOJ6wDxdmLZzFJ60GEgd97BQXOonLMagsMIJCUE3Dky2BFVi1cdRpzvngRiq30y4EqftfIJ1Z1CYQcILjHHsz9KwfLdhtLqgUW6eUiDXdWTQEWd9eg4H3VOQglbZX3UPBdLeXiDRB5fHtUWUaY9Hjvwc7o3Ca+qn+/qg3/Q+YmI6sgNH7BgR1q4cGL6gYmK5nR8P/tndtu28gdxj+dlUW2N9uLokWKXrU3fYui6Du06BP0GXpf7KHbXTTNJtsEu0mb5gA3R8fdxHadOqdN46QN7CTOQZFlO8pJts4nS/JiKNGhaVKkxKFFUR8BAUZC/jXzmyHn058z3yii7PjUC5w9/Hts1nP9ceRVJGBAwHWBoM49eLqcwZ8mgJL9eSzb7IatXBKFGDCyIu7W6kYCwnDgdxB7h/gxiNVr2e06NhrVxc5dMGgukXAQv/7FPvzml/vsFJfnjDIBsaKhWZK+geowIS3XWvjs+Bzu/Ovz9hJQHiQgiYCrAkGbPTg8WcCd5M5ljU7dE+0IAP0gLYmdqYCREX+UuYgE0vffj+Gj3/0cP/xgjwycjOFnAiO+ouHe0wI+/PNx1Fcm23bUPEhAEgFXBYKaPZhPrOPQdBOFKl0TJbWb78OEQgH89Ed78dtf/Rg/2/c+9u4J0z3P963eZwVHcEVDq7WJ9WID9xMFHP3nNeSfnAX4eqHPDsTLzAi4JhDU7EEuL1wT87i6GDScvMSmIQEzAqFgAB98L4qf/OA97H0vgpBILfAggR0ENpUJi6PUO5rNBtbfLmPl8beovr6vTNbkQQKyCbgmENSVC8I18dOJFrKVUbp9ZTcT45EACXQjEKi+ROTpfkQjIWXXPx4kQALOCbgiELRzD07M5nB1ka6JzpuKEUiABLoRCK2eRSx/V9lDQCy55EECJOCMgHSBIMSB+IgNPxaX1vDJpRY2mhJuVqemQlacuhkaWV1r9f9ult3N2KJe5GLcum5yH9bY2v4i/pZw22+Db8ElUMsgkvwrohC7PQYoEqyeS/x/ErAg4IpAEFtb5vIFHJsp4NYzg3Sf1QPQzPzITnP2E7uXh5ldh0FtWe0+KPspu5uxycXcj0MGdzOvDxmx9YO12h/djD3o/rLZQOjFJcTycwiFghQIdp6XPIcEuhCQLhDUuQfziTUc/ncT6yXdE0n/gDIbFDX/rvobKEv/tNfrH7B2Y2senjuMjlRYVrG7/VoyKrs25WlHAJFLuyXstin7y7vb3OQe6buv2xTFW/dpt77ei+V4H/dRoJxENPU3RIINzkXg0EcCDglIFQjq3AOxv/XpazlMPWjvuaBd07+jvBqrYDNnRP01ds/bGlzEJGeNNWPX8mhcHa3O09oz241v97x+yu5m7LYeaj+xyWV7jyQX46fQYLhsIrR0HLHKIuciOBwceDkJSBUIqu/BcjqDj8dbyFfarxf0Dod2nAP1bn7qpCMhQt5lS43dE63im1kw71ZsdZAll4AyX0V7GLWdmbOj/rptIqbzK3a32tSsz8noi936i9H91Z1LO5qvudTeIJr4AtFQi1kEjnEk4ICANIGgXbnw9VQONxMhB8XipSRAAiTQP4FQehzx3G1mEfpHyCtJANIEgpo9ePh8DR+Nt6SaIln9CnPSjnZ+nTqN3+seEXa/j1yMSZELuQhfhFjqKCJc0WD3ccLzSGAHASkCQc0eZHMFnJgtYPax3anSbBESIAEScIFAawPh9EXECv9jFsEFvAw5GgSkCAR15cJicg0HpxrI6FcujAZL1pIESMBDBAKlFGLJLxGJhDkXwUPtwqIMDwHHAkE792Dseg5XHnDuwfA0P0tKAv4mIFY0xLmiwd+NzNq5RsCxQFDnHiSWM/jjRAvFGl8vuNZaDEwCJNAbgXoWscQBRIN1ZhF6I8ezScDZJEVt9uDwZB7/fc5NUtinSIAEvEUglL6EeO5bzkXwVrOwNENAwFEGQc0eLCTW8ZfJBkpVTfZA/GnkwGblEGiWgLATyyq2aBC78fWx3IwtymUV3265jWJZxSYXc4dOu9y91l/M2nQE76NAOYXYygmuaBiCAYlF9BaBvgWCmj3I5YVrYh5XHwXQ6tRNNWHZ5rjXedBuM2gRZjZmfvR6Trrrd7j5iVBaE6VeYncepnrzmK0idMTODqtaGWUnl612Y3/p9Dg3+7pRf9Oq5mG9j4zuYfUZsNlAePUMYqV5ZhG8Nf6wNB4n0LdAUFcuJFcz+PTSBtbL7dcL2oe80fp//cBuNuiaeQd0i28Zu/PrWkbsdiiNq6NGkFjV2+r/e41txZ1c2nehkXOl9v403KtAZ9OtPb+Xvthrmzq+jyT2dT9wCVTSiCX2IxqNci6CxwclFs87BPoSCNq5B6dms5h62P/KBWGhrLfblYnHzfjDGlsRFC5yH9bY5GJ+5w1rm2rLLbII8eL/mUWQ+YBlLF8T6EsgqHMPHi+JPReaqDW4csHXvYSVIwEfEAjUM4glDyMaqCoCWd3fxQdVYxVIwBUCPQsE8WtfCIRcLo+vpvO49YziwJWWYVASIAG5BDabCL+cQDw/h1AoSIEgly6j+ZBAzwJBnXsw/2wNX06LuQcUCD7sF6wSCfiSQKCURHzlH4gENzgXwZctzErJJNCTQNiae1AUKxeymHoQhG63XpllYywSIAESkEtgs4XI8knE6K4olyuj+ZJATwJBnXuwks7gw4tN5CrMHviyV7BSJOBjAoHqa8SSXyAaArMIPm5nVs05AdsCQbty4eh0Ftef9r9ywXmxGYEESIAE+icgdnqM5+9wRUP/CHnlCBCwJRCEOBCfWq2GR8kM/nChZevVwg7jIhWogZvblrmS8BOweVjGNzMhshHfMraIYWQqIzG2CEUuxi6T5EIudu9R7X2k3LZiBYPIIqS+4ooGG88rnjK6BGwLhGaziWyugOP/yePaos5SWTOQqTeglSvhFnK9JbO2LUwGeNuxO4O4qVujyQBvGF+tcjdLXZllJ5c2TSPLbjMHS/YX4ycZuezk0tpA+OV4xxeBKxpGdwhkzbsRsCUQ1JULD5NrODhZR6bY/Ve+cIEzcyvUF0a7FtmOYVIvsVWxov8FYQZEda/zQtnJxWSs02SY2F/eMWJ/6b2/BMtLiKe+RiQc4FwEjpMkYEDAUiBo5x6MXc/im3nu2MieRAIk4A8CkdTfEa8+5VwEfzQnayGZgKVAUFcuPF/J4JPxBgo1sbTR7i5FvZXWTTtXo1cfvZWu+9lult3N2ORi3q5uch/W2H7rL4H6GuLJQ4jSF0Hm45CxfEKgq0DQZg+OTObomuiTRmc1SIAE3hEQ7op78reZRWCnIAEdga4CQc0eLCTW8Pk3DVTq5EcCJEAC/iIQqCwjvnoSUVS4R4O/mpa1cUjAVCCo2YNsvohTsznMPBJL7hx+Gy8nARIgAa8RaG0gkj6HeGmBWQSvtQ3LM1ACpgJBXbmQWMngs4kNrJXs+xNNzvhNAAADRklEQVQMtEb8chIgARLokUCwsop48iAikQhXNPTIjqf7l4CpQBC+B8WiyB6s4/I8xYF/uwBrRgIkIAhEVscQL80zi8DuQAIdAoYCQX29kMvlcO3+K6RW3ypiodFouLaCQXaLVCsVPH7yBNVqVXZoxiMBEvARgWAwgHA4jFiwhnjjpfK31lfCR1VlVUigJwJdBUKpVMLbt2+RyWQg/hZZhWE4yuUyLly4oJSdBwmQAAmYEVBslwMBJWsQjUaVj/ibAoF9hgQAU4EgsggbGxvKL3DxEeLALf8DWQ0hyre4uIjx8XGKA1lQGYcERoBAMBhU5h6onxGoMqtIApYEuq5iEAOumKyobtZkGW3AJ9y8eRPnzp1DoVDwvJgZMCp+PQmQgI6Amk0gGBIggTYBS6OkYQAlMhxXrlzBxYsXh6G4LCMJkAAJkAAJeJ6ApdWy12sgJk+OjY3h9u3byisRHiRAAiRAAiRAAs4JDLVASKfT2L9/vzLfQLwK4UECJEACJEACJCCHwFAKBDEnYmFhASdPnsSrV6/kkGAUEiABEiABEiCBLQJDJxDq9TqmpqYwPT0N4dPAgwRIgARIgARIQD6BoRIIQhycOnUKs7OzXKUgvy8wIgmQAAmQAAkMVwZBvFJIpVI4f/485ufnKQ7YgUmABEiABEjAZQKezyAIcXDv3j2cOXOG8w1c7gwMTwIkQAIkQAIqAU8LBPFK4caNG8prBbEPBA8SIAESIAESIIHdIeBZgfD69WvFMlm4I/IgARIgARIgARLYXQKeFAhLS0s4cuSI8kqB/ga72yH4bSRAAiRAAiQgCHhKINRqNdy6dQunT5+GeL3AgwRIgARIgARIYDAEPCMQ1tfXlVUKc3Nzyu6RPEiABEiABEiABAZHwBMCQbxSOHToEN68eTM4EvxmEiABEiABEiCBLQIDFQjlchl3795VMgfZbJbNQgIkQAIkQAIk4BECAxMIYoMl4W0gPA64hNEjvYHFIAESIAESIIEOgV0XCGJVwosXL3DgwAG+UmA3JAESIAESIAGPEthVgVAsFjEzM4PLly9zIqJHOwSLRQIkQAIkQAKCwK4JhHQ6jWPHjiGZTPKVAvseCZAACZAACXicwHfGtEhpmdNq6QAAAABJRU5ErkJggg==;" vertex="1" parent="1">
          <mxGeometry x="960" y="290" width="651.85" height="440" as="geometry" />
        </mxCell>
        <mxCell id="Je-rHfzs1zaMtYx9te_G-123" style="edgeStyle=orthogonalEdgeStyle;rounded=0;orthogonalLoop=1;jettySize=auto;html=1;" edge="1" parent="1" source="Je-rHfzs1zaMtYx9te_G-121" target="Je-rHfzs1zaMtYx9te_G-113">
          <mxGeometry relative="1" as="geometry" />
        </mxCell>
        <mxCell id="Je-rHfzs1zaMtYx9te_G-121" value="&lt;font style=&quot;font-size: 16px&quot;&gt;View&lt;/font&gt;" style="ellipse;whiteSpace=wrap;html=1;aspect=fixed;" vertex="1" parent="1">
          <mxGeometry x="1410" y="900" width="80" height="80" as="geometry" />
        </mxCell>
      </root>
    </mxGraphModel>
  </diagram>
</mxfile>
